<svg width="1440" height="800" xmlns="http://www.w3.org/2000/svg"><path d="M850.996 0L759.77 328.588l93.087-12.543L851.016 0h15.221v297.688l212.708 75.301 3.299-.505v14.947l-3.299.576.278 4.01-228.62-68.178-265.68 32.254-176.961-12.13c-.13 3.353-.872 5.32-2.228 5.902-3.043 1.305-10.384-.543-10.957 0-1.562 1.48 4.057 1.714 4.72 2.436 1.908 2.078 1.586 4.126.724 4.987-2.887 2.889-4.554 3.321-6.2 3.321-3.922 0-.468 1.615-.732 2.213-.833 1.887 4.773 2.135 4.246 5.685-.527 3.55-4.064 4.183-4.246 4.482-.465.766-2.003 1.678-4.614 2.736-.257 2.439-.257 3.943 0 4.513.205.454 2.529 1.6 6.971 3.438-5.43 1.226-10.27 1.956-11.325-.484l-6.94-.464.492 3.84-3.74 3.305h-4.642l-4.078-4.845-2.62-1.836c-1.172-.966-1.952-1.73-2.34-2.292-.741-1.074-3.794 1.896-1.102-3.731s6.144-.485 10.14-1.518c1.95-.504-1.097-2.273-1.097-3.46 0-1.187 3.163-3.302 2.564-3.486-1.746-.534-7.465 1.72-7.717 1.655-.82-.212-3.642.398-8.467 1.83-3.437-4.846-2.546-7.864 2.673-9.052 1.04.082 1.095 3.388 2.24 3.642.31.068-1.115 2.216-4.564 2.216-3.45 0 .73 1.34.92 1.364 4.335.556 14.347-3.605 14.915-3.58.653.028 1.496-.816 2.529-2.53-3.237-5.381-3.957-7.908-2.16-7.58 1.897.344 2.617-1.205 2.16-4.648l1.914-4.083c1.835.234 3.29.234 4.369 0 1.033-.224 1.801-2.726 2.643-2.957 2.058-.567-.036-1.94.814-2.365 1.384-.692-13.267.43-12.877 0 1.25-1.376-7.948.303-9.897 0-6.133-.95-1.896-7.196-7.053-.449-7.126 9.326-16.313 12.095-20.555 15.48-1.524 1.216 2.086 2.757 3.323 4.25.825.995 2.62 1.778 5.389 2.351l5.52-.86c1.383.655 1.988 1.424 1.815 2.31-.138.705-.915 2.25-3.864 2.769-2.949.518-2.933 1.233-3.992 2.062-1.763 1.38-2.015 3.687-1.972 4.258.115 1.533 14.28-4.818 14.336-2.597-3.128 1.103-12.08 4.787-13.106 4.978-.971.18-1.054 1.706-1.66 2.576-.648.93-1.817 1.2-2.878 1.155-1.12-.049-1.657-1.056-2.91-1.155-1.137-.09.068-2.769-.88-3.219.538-.17 1.468-.435 1.598-.422.176.019 2.23.625 2.23.313v-1.575c-2.04.22-3.44.087-4.2-.399-1.139-.73-2.051-1.834-2.134-2.333-.083-.5-.193-.972-.474-1.004-.28-.031-1.957-.792-1.617-2.554.34-1.763.678-3.331.99-3.464.209-.09.839-.496 1.89-1.222 1.553-.075 2.232-.269 2.036-.581-.294-.47-5.255-8.299-7.983-9.725-2.728-1.426-12.163-2.427-14.373-1.848-1.473.386-5.289 2.455-11.446 6.206-3.543 2.34-5.32 3.572-5.333 3.696-.012.124-.006 4.533.019 13.228l2.473.296-1.033 30.633c-.388 7.987-.556 13.594-.503 16.822.052 3.227.391 8.08 1.016 14.555 1.673 2.11 2.987 4.93 3.942 8.456.955 3.527 1.99 9.376 3.101 17.545-.814 17.187-.91 29.31-.285 36.366.203 2.297-.535 22.116-.598 36.623-.02 4.54.598 8.518.598 11.33 0 3.41.535 16.344 1.606 38.799l-.519 13.05c-2.568-3.734-4.536-6.756-5.903-9.064-.27-.455 1.255 4.07 0 5.075-1.402 1.123-5.707-2.848-6.276-3.865-1.007-1.798-1.75-7.288-2.227-16.47l-.097-.001c-.558-13.233-.84-22.722-.845-28.467-.013-16.228 1.189-27.545 1.25-33.89.278-28.713.945-45.718 0-50.34-2.9-14.19-4.717-24.049-5.45-29.578l-1.323-59.353c-20.658-.819-32.813-.819-36.463 0-2.918.655 2.765 6.67 2.239 7.198-.748.75 1.198 1.254 4.254 2.234 1.277.41 3.731 2.202 4.918 4.303.697 1.235.021 3.157.914 3.413.884.253.972-.8 1.625-1.65.789-1.026 2.128-1.942 3.111-2.3 2.546-.926 5.607 1.119 5.745 1.43.588 1.325.98 1.732.851 2.52-.262 1.605-1.797 2.934-2.722 3.748-1.767 1.554-4.27.909-5.871.852-1.79-.064-2.587.365-2.74.54-.597.69-.315 2.585.845 5.686-.446-.447-3.481-1.024-9.105-1.732-2.009-.253-2.8-.49-2.372-1.479.396-.912-1.044 1.305-2.811 1.873-2.397.77-5.383.1-5.104-.657.327-.885-.677-.804-1.67-1.216-1.586-.658-3.664-1.566-4.165-2.063-1.73-1.72-.154-2.12 0-2.396.423-.754 3.055-3.183 7.133-1.887 1.16.37 3.108 2.01 5.841 4.923 1.153.15 1.774.15 1.864 0 .835-1.398 2.073-3.038 3.713-4.923l-7.77-9.545-7.887.56c-.803-.391-1.342-.793-1.615-1.206-.273-.413-.498-1.164-.674-2.255-3.044-1.813-5.244-3.145-6.6-3.997-1.4-.88 1.07-2.882-.171-3.71-3.523-2.346-1.952-.983-4.95-2.678-3.02-1.709-3.73-3.767-1.05-5.964.105-.085 1.66-.343 1.845-.438.723-.37 10.725 2.037 11.6 1.646 1.379-.616-1.324-2.91-3.83-4.132-2.506-1.223-4.86 1.042-7.77-1.223-2.91-2.266-7.752-3.852-7.998-6.423-.178-1.86-.127-3.644.66-5.482 2.057-4.803 7.268.768 8.51 0 .766-.474 2.558 1.545 7.483 5.482 1.552 1.24-.885 5.452.313 6.423 1.258 1.02 1.786 6.195 3.652 3.71 1.866-2.487 6.427-13.947 8.64-12.984 1.415.615-.964 4.734-2.511 7.45a589.255 589.255 0 0 1-4.526 7.755l4.967 6.858c4.835-3.246 8.911-4.869 12.227-4.869 2.753 0 0 1.362-1.568 2.19-1.57.83-3.874 1.723-6.912 2.68-1.705 1.137-2.264 1.715-1.677 1.735 22.125.742 37.565-.612 37.582-.774 1.298-12.156-4.814-21.92-18.334-29.295l-3.065-3.95h1.997v-5.039l-122.236-7.796L0 294.3V0h850.996zM257.46 574.784c-.452-1.684-.59-2.516-.417-2.495.167.02.773.855 1.815 2.504l-1.398-.01zm46.41-237.622c-.496 0-2.223 4.107-1.73 8.179.33 2.714-1.336 5.065-4.998 7.052-1.54 2.887-2.437 4.597-2.69 5.13-.382.798 5.24-2.707 5.723-3.181.323-.316 3.038-2.257 8.147-5.822a37.211 37.211 0 0 0 1.45-5.044c.343-1.639-.465-3.743-2.423-6.314h-3.479zm-5.63-.26c-6.453-.37-9.878-.564-10.275-.583-.595-.03-.475 2.815-.475 3.568 0 .502-.216 1.585-.65 3.249.283 2.25.5 3.874.65 4.872.151.999.31 3.207.475 6.625l1.264.6c2.57-2.071 4.519-3.886 5.846-5.444 1.992-2.338 2.757-4.052 3.165-6.653.271-1.734.271-3.812 0-6.233zm23.48 1.32l-9.926-.367c.704.789.952 1.363.743 1.723-.314.54.313 4.908.313 5.648 0 .74 3.764-2.736 4.374-3.43.61-.693 4.496-3.574 4.496-3.574zM.54 46.864v21.28l169.554 49.438h1.21l-1.21-1.652h-3.518c-2.191-1.506-3.599-2.77-4.222-3.792-.624-1.023-1.396-1.854-2.317-2.494a27.139 27.139 0 0 1-6.551-5.774c-1.875-2.282-2.755-4.428-2.638-6.439l-1.983-1.916c-1.119 0-2.276-.067-3.47-.2-1.196-.134-2.695-1.4-4.498-3.795L.54 46.864zm343.024 108.589l-7.408-3.27-1.365.538h-1.545c-1.386.366-2.079.552-2.079.56v2.172l-1.745.73v1.45c.328.966.547 1.75.655 2.35.162.902.417 1.24.497 1.636.054.263.6.263 1.64 0l11.35-6.166zm8.718 184.723l-27.137-1.46a16.26 16.26 0 0 1-1.332.58c-.36.134-4.46 3.552-12.3 10.256l5.899.502c1.887 0 4.021.55 6.4 1.651 2.38 1.101 4.683 2.831 6.91 5.19l2.509-1.216c4.5-2.808 7.903-4.85 10.212-6.127 2.309-1.276 5.255-4.402 8.839-9.376zm-47.248-180.861l-1.806-2.766 1.182-1.376v-1.44l-1.182-1.48c-2.002-.555-3.21-1.002-3.621-1.34-.412-.337-1.308-.747-2.687-1.228-.589-1.38-.985-2.069-1.189-2.069-.306 0 0-3.133 3.876-3.757 3.875-.624 7.223 1.527 7.709 2.033.323.338.584.169.783-.506l1.291-.903-34.201-11.064-4.223-.95 2.98 1.451-1.132.954 1.132 1.009c-.448.749-.826 1.22-1.132 1.411-.46.288-2.874.62-3.595.62-.721 0 .511 2.272.72 2.808.14.357-.31.626-1.35.807v1.458c.195.64.195 1.44 0 2.399-.196.959-.685 1.703-1.467 2.23l37.912 11.699zm-115.829-52.927v4.312c.232.175.463.422.691.741.343.48.855-.096 1.494.48.426.384 1.056.576 1.892.576l-2.626 1.63c.916.827 1.455 1.245 1.615 1.256.24.016 1.237 1.018 1.721.921.484-.096 1.27.323 1.508-.096.159-.28.541-.654 1.148-1.123.868.061 1.085-.083.65-.433-.65-.525-2.462-2.155-2.717-2.155-.17 0-.255-.368-.255-1.104l.255-2.477-.589-.992-4.787-1.536zm15.875 8.92l-2.93 1.88h-2.324v2.49c1.495.494 2.37.617 2.627.37.385-.37 1.036-1.247 1.68-1.549.43-.2 1.33-.638 2.7-1.31l-1.753-1.881zm25.22 3.538v3.722c0 .303 1.47 1.891 1.311 1.347-.105-.363-.105-.812 0-1.347l2.228-1.016c.553-.253.745-.45.577-.592-.168-.141-1.54-.846-4.117-2.114zm-21.665 6.447v2.704c.129.464.329.698.6.7.405.005 1.054.33 1.055-.436.001-.766-.002-1.532-.001-1.823 0-.291.012-1.145-.253-1.145h-1.401zm370.568-8.887v-3.926l-45.36-10.916-112.618 47.494v3.202h-6.4c-1 1.159-1.57 1.883-1.713 2.172-.144.29-1.395 1.424-3.754 3.404l123.857-51.544 45.988 10.113zm-167.765 36.926l-7.175 1.838c.739 2.239 1.216 3.53 1.431 3.873.216.343.566.343 1.05 0l1.388-1.852 3.306-3.859zm-35.616 17.44l-2.629-2.23-12.421 5.348c-2.15 1.44-3.351 2.281-3.601 2.526-.25.245-.536.122-.856-.367l-7.352 2.38c1.162 1.423 1.905 2.134 2.227 2.134h1.924l3.201-3.206 2.281-.941 2.176.94 15.05-6.584z" fill="#343434" fill-rule="evenodd"/></svg>