<svg width="1440" height="800" xmlns="http://www.w3.org/2000/svg"><g fill="none" fill-rule="evenodd"><path stroke="#4A4A4A" stroke-width="3" d="M406.53 343.818l725.958 50.816v13.133l-736.981-41.112m373.426 192.989v5.383m14.98 22.136v6.805M851.9-39v355.949l231.039 73.118m-230.993-72.969l-280.808 38.198m-188.741-13.333l-12.165-1m-42.558-3.255l-21.34-1.625-5.065-.335m54.567 3.607l-30.544-1.817M-71.998 23.572l212.064 67.384m129.405 41.207l40.264 12.388M-60.028 279.308l199.22 46.24 123.862 6.907M696.337-3.9L331.053 162.25m-86.014 39.17l-37.86 16.215M8.1 839.198l277.508-120.409 1227.668-149.12"/><path stroke="#4A4A4A" stroke-width="3" d="M103.47 834.85l213.18-106.2 1196.679-153.59M363.894 835.992l46.768-38.886L1515.633 593.33M504.398 838.525l1013.54-234.917M329.9 362.09l-36.297-1.714m-76.053-4.681l-77.205-3.997-214.962-40.474m433.902 66.167l-20.28-1.027m-6.223-.571l-39.729-2.033m-58.794 6.03l-146.15-5.51-159.775-22.229m1128.102 60.283v125.989"/><path stroke="#4A4A4A" d="M147.835 837.134l172.271-95.352 1200.58-166.12M385.788 837.134l28.718-25.136L1517.16 595.167M371.96 169.673l-11.118 4.94M331.63 243.9l-17.285-1.714m-4.61-1.142l-28.71-2.832m-23.72-2.877l-34.745-3.344m-1.73 4.339l-84.518-10.702-191.455-72.726 3.929-2.02 186.95 70.75 81.483 9.643m355.244-111.847L539.45 268.337m27.252-146.625L534.437 267.88m133.668 75.367l93.338-363.706M545.96 269.022l48.973-226.103m-68.897 30.357l-5.909 31.89"/><path stroke="#4A4A4A" stroke-width="3" d="M1092.734 371.225l-203.96-77.08V-35.327l203.96 218.132zm-9.219 3.855v14.987"/><path d="M865.727 297.57l22.675-2.798m204.332-111.966c-.769 0-9.603 2.512-26.504 7.536 18.437-5.024 27.272-7.536 26.504-7.536zm-26.504 7.422l-85.271 25.694m.576 0l-.576 6.851 2.88 1.713v5.139h-4.032v47.39M889.35 163.964l91.609 58.81m8.066 61.664v46.82l-2.304-1.143v-46.82m-6.338-53.099l-91.033-57.668m50.702 86.559v53.9m32.726-36.771l-.461 49.902m-39.179-69.658v53.671l-5.762-1.713.576-55.383m5.762-48.533l-.576 47.962m4.033-49.674l-4.033 2.283M909.515 243.9v57.096" stroke="#4A4A4A"/><path stroke="#4A4A4A" stroke-width="3" d="M301.313 586.516l49.906 7.957 347.423-21.697M282.656 373.509l-36.936 5.85m-3.395 456.633l120.417-78.222 1151.163-175.287M279.775 359.805l-39.11-2.163m860.135 50.696v6.28l-714.672-35.604"/><path d="M1114.628 549.938l398.125 16.558" stroke="#4A4A4A" stroke-width="4"/><path stroke="#4A4A4A" d="M276.318 835.421l91.033-59.951 1151.163-190.133M629.503 834.85l887.859-228.958M420.756 148.787l111.376-48.222 47.909 10.66-.871 4.073-47.038-9.703-126.178 54.372m-28.808 11.419l-14.98 6.281M532.22 100.68v4.818M336.815 245.041l212.026 24.552 1.728 3.425-215.483-23.98m-11.523-1.713l-9.795-1.142m-5.761-.571l-25.351-2.284m-27.08-3.426l-29.72-3.118m353.076-120.639L362.22 198.61l-10.356-.87M850.807 0l-92.245 330.115M673.29 7.519L590.9 354.096M469.316 99.395l-5.747 31.453m-45.275-7.708l-2.546 13.417m-43.788 7.423l-4.033 26.264m715.012 204.978L865.727 297.57V-11.323"/><path stroke="#4A4A4A" d="M889.926 19.51l176.88 170.718v170.72m-85.271-145.026l-92.185-60.523m93.914 73.655l-93.914-59.952"/><path stroke="#4A4A4A" d="M889.926 230.196l176.88 91.355v3.425L889.35 233.051z"/><path stroke="#4A4A4A" d="M1033.966 307.993v41.022l-3.457-1.642v-41.238m-50.702-26.265v48.532m-6.338-97.635l-33.993-20.555.576 46.248"/><path d="M971.74 229.739l1.729 1.028-.576 42.251m-44.941-23.409l.577-43.965 5.185 3.426m.576-3.997l-44.94-27.406m20.165 12.544v50.262m63.954-9.706h6.338" stroke="#4A4A4A"/><path stroke="#4A4A4A" stroke-width="3" d="M-4.847 612.744L207.18 575.63h27.656l54.312 8.503m601.354-23.347l32.265-1.142"/><path stroke="#4A4A4A" d="M562.092 393.493l1.729 182.138-211.753 12.374-2.002-205.932m212.603 11.42l-184.947-9.136m196.331 14.736l119.98 5.248v162.783l-118.667 6.3zm354.476 133.145c10.37 14.464 16.708 22.077 19.013 22.838 2.304.762 17.093 3.807 44.364 9.136l47.821-1.142c-1.536-6.09-8.834-8.755-21.894-7.994 0 .571-21.318-4.568-25.927-4.568-4.61 0-9.795-5.138-17.86-14.845 0 0 0-7.993-3.458-7.993h-35.145c-1.537.38-2.113 1.142-1.729 2.284 0 0-5.762 0-5.185 1.713.384 1.142.384 1.332 0 .57z"/><path d="M1036.27 563.07v23.98m-45.516-22.931v24.644m86.193-31.403l-.115 23.98m40.446-23.98l-.115 21.697" stroke="#4A4A4A" stroke-width="3"/><path d="M984.992 547.185V416.33m0 .572l-78.933-3.426v141.03l33.993-1.714m50.702-139.316v133.036l28.79.465-14.674-13.598c-.577-1.522-.096-2.474 1.44-2.854 0 0-3.1-5.14 3.3-4.539l2.403.315 1.064-2.336h32.392c2.609 1.347 3.487 3.75 2.633 7.207l14.87 14.706c35.716 2.213 54.279 4.708 55.689 7.485.872 1.282 2.342 3.558-1.153 3.997-2.33.293-16.283.446-41.86.46l-44.781-5.322c-5.946-4.788-10.351-8.465-13.217-11.029-2.865-2.564-6.645-6.212-11.34-10.944m31.112 28.548l38.027 4.568m-40.331 3.996l-43.788 1.713m-21.318-2.854c0 3.806-.96 5.71-2.88 5.71-2.882 0-4.034-3.427-4.61-6.852M699.794 399.773l202.231 9.707v150.735M703.251 400.344l.576 137.032" stroke="#4A4A4A"/><path d="M808.112 578.984v29.848" stroke="#4A4A4A" stroke-width="3"/><path d="M807.14 586.27l-53.35 2.477-2.54 2.436-50.304-18.978v3.426c2.305 8.224 2.066 13.111-.718 14.663-1.586 0-3.439-1.295-3.89-5.527-.61-5.704 0-9.136 2.304-9.707v-8.257h2.304l14.404 5.402c-7.298-10.658-10.947-16.558-10.947-17.7 0-1.713-2.467-9.772-4.175-11.207" stroke="#4A4A4A"/><path d="M816.754 563.64v28.321" stroke="#4A4A4A" stroke-width="3"/><path d="M894.535 409.48l-.645 150.06m-43.143 17.804c0 2.664-.96 3.806-2.88 3.426-1.921-.38-2.69-1.903-2.305-4.568m19.013 3.997l48.397-2.284m-107.742-41.11c11.043 18.55 17.525 28.016 19.445 28.397 2.88.571 33.672 7.597 36.863 8.265 2.128.446 19.795-.327 53-2.318-.66-5.767-5.983-8.65-15.97-8.65-6.53 0-16.046-1.423-28.549-4.267-4.013-2.865-9.861-10.198-17.543-21.998 0-.57 1.775-6.05-3.986-6.621-3.841-.381-16.149-.458-36.923-.23-2.136 0-2.917.884-2.343 2.651.031.062.572 1.758.576 1.815.037.642-3.24-1.071-4.57-.47-1.33.604-1.266 1.833-.575 2.855.46.682.652.872.576.571zm1.153 2.855c-2.304 1.142-2.496 2.665-.576 4.568 1.92 1.903 6.338 8.564 13.252 19.984M703.445 416.458l130.594-6.407 7.49 1.142 50.702 1.998m-58.711-2.888l-.647 118.253m58.908-41.425h-50.528" stroke="#4A4A4A"/><path d="M884.74 560.215h7.49" stroke="#4A4A4A" stroke-width="2"/><path stroke="#4A4A4A" d="M988.728 501v5.139H987V501zm-421.45-111.504l.576 190.703"/><path d="M863.423 573.776v29.094" stroke="#4A4A4A" stroke-width="3"/><path stroke="#4A4A4A" d="M1016.105 543.657l9.218 9.135v2.284m53.007 8.564l38.026-.57m-127.331 6.851l-61.649-11.99-.576 2.855c1.92 4.568 1.92 8.564 0 11.99 0 0-3.457 3.426-5.185-1.713-1.153-3.426-.768-6.851 1.152-10.277l1.152-7.423 3.457-.114.576 1.827 17.861 2.284c-10.37-10.658-16.516-17.7-18.437-21.126-.576-1.713 0-2.855 1.153-3.425M699.794 399.293V566.38m7.761-29.294c-.971.4-2.443.662-4.415.783-3.548.217-3.5 2.387-3.216 4.075.384 1.142 1.316 1.584 2.797 1.327 2.658 5.967 3.987 9.712 3.987 11.234 0 2.284 9.218 17.13 12.1 17.7 1.92.38 10.84 2.908 26.758 7.582 5.199 1.24 8.786 1.756 10.762 1.55 1.976-.205 19.237-.84 51.784-1.907 3.166-1.872 3.044-3.835-.368-5.89-3.412-2.055-17.109-4.98-41.09-8.778-5.806-6.838-10.423-14.444-13.853-22.818-.577-.571.702-7.994-3.332-7.994h-40.897c-1.243 1.351-1.672 2.598-1.288 3.74"/><path d="M752.224 581.34v30.895" stroke="#4A4A4A" stroke-width="3"/><path d="M815.026 564.212h-32.841l-14.944-4.133 36.982-.435 16.91 4.682a723.661 723.661 0 0 0-6.107-.114zm.576 3.996l-26.061.423" stroke="#4A4A4A"/><path d="M783.913 564.449v3.104" stroke="#4A4A4A" stroke-width="4"/><path d="M891.667 559.462l.564-150.553m4.609 93.496v5.71h2.305v-5.71zm-327.488 5.281h4.033v7.993h-4.033z" stroke="#4A4A4A"/><path d="M913.549 571.087v28.383" stroke="#4A4A4A" stroke-width="3"/><path d="M817.906 569.35l44.94 10.849M840.953 411.3v118.083M830.006 410.05l-.602 118.528m160.86-115.033l65.838 2.217M882.238 560.215h5.383" stroke="#4A4A4A"/><path stroke="#4A4A4A" stroke-width="3" d="M1115.301 549.505l-5.301-.363-.478.838v.334"/><path d="M167.424 394.064l1.153 188.419m132.516-3.997l50.728 9.554m634.977-474.857l-22.548 91.32m4.61-109.055l-19.59 99.348M-65.71 367.877l223.916 28.47v180.997L-6 603.037m173.424-208.973l35.146 3.425 1.728 177-35.721 6.852zm182.642-11.991c-.384 0-17.284 2.665-50.702 7.994v69.087M282.7 398.062l-19.633 3.424 2.305 172.343 23.045 2.944m-85.872-179.256l36.323 1.114m756.495-276.919l-24.978 86.682m8.269-103.24l-21.894 94.21m2.333-112.891l-17.889 102.613m9.219-111.338l-16.599 106.92m-571.658 14.125l-6.914 47.961m33.993-58.239l.576 62.807m.115 3.426l.461 76.51m158.443-58.24v79.936m-13.827-81.648v80.744m-6.913-80.744v79.935m-6.915-81.077v80.888m-6.914-82.03v81.077m-6.914-81.077v80.825m-8.066-81.967v83.361m-6.914-84.503v83.361m-6.914-84.503v83.361m-6.913-83.361v83.361m-8.067-84.503v83.361m-8.066-84.503v85.645m-6.914-86.787v85.645m-6.913-85.645v85.645m-8.067-86.787v85.645m-8.066-86.787v85.645m-8.067-86.787v85.645m-8.066-86.787v85.645m-32.264-89.07v86.31m-8.067-86.31v86.204M163.967 229.054l.577 97.635m9.794-56.804l.576 57.946m8.643-96.493l-.115 24.551m.115 21.126v18.271m0 13.704l-.115 18.042m-28.693-99.12l.576 97.635m-10.947-98.777l.576 97.636m-8.642-98.778l.576 98.49m-6.338-100.774l.576 100.49m-8.642-102.774l.576 100.49m-7.49-103.915l.576 102.774m-7.49-105.059l.576 102.775m-7.49-105.649l.577 103.365m-8.643-106.2l.576 104.838M85.61 206.215l.576 106.2m-7.49-108.484l.576 106.864M70.63 200.506l.576 108.483M62.564 197.08l.576 110.019m-8.643-112.303l.577 110.576m-9.756-113.691l.537 111.599m-8.642-115.336l.576 113.052m-8.642-116.091l.576 114.35m341.14-103.822l-.631 53.034m71.553-80.159l-17.394 87.01m-55.311 67.375l184.37 14.845v15.926m-11.523-81.016v79.935M19.928 181.093l.576 116.191M10.71 177.667l.576 117.06M1.49 174.241l.577 118.38m407.343-35.019v69.087m-9.218-70.229v69.087m-8.066-70.228l.576 73.083m-24.775-75.367l.576 53.67m-9.794-54.812l.576 49.103m-8.643-50.246v23.981m-9.218-25.122v20.555m9.218 20.554V314.7m-9.218-10.85v17.13m9.218-3.537v7.78" stroke="#4A4A4A"/><path d="M264.795 148.548l40.907 11.99m-363.107 9.578l246.147 54.941m-248.474.658l195.496 36.679" stroke="#4A4A4A" stroke-width="3"/><path d="M15.895 185.926v109.931" stroke="#4A4A4A" stroke-width="4"/><path stroke="#4A4A4A" stroke-width="3" d="M143.226 226.637l1.152 76.643-10.405-1.974"/><path stroke="#4A4A4A" d="M37.213 96.59l87 25.693v31.608m11.707-28.275l29.2 8.657v53.544M136 111.922v49.635m-4.297-49.551l-7.49 10.277m-97.947-29.69l6.337-10.278m4.61.571v109.055m222.973 18.842c0 1.523-1.345 10.087-4.033 25.694"/><path stroke="#4A4A4A" stroke-width="3" d="M174.973 230.514l-.396 2.064-16.371 7.895.541 62.636"/><path d="M195.08 277.586v17.7m9.795-61.093V247.5m.575 64.344v16.558m18.438-17.794v18.936m10.371-17.543v17.543m9.218-13.132v16.558m0-45.106v34.258m18.437-39.968v34.258m0-61.232v16.697m63.954 34.195l-.576 31.466m228.158 11.419L412.868 338.11m-57.588-3.395l-48.677-3.953m-44.113-3.502l-125.026-7.993L-64.759 268.2m-.463 33.777l205.997 40.546 134.937 8.211m856.776 53.036l-734.6-45.106m-28.746-2.176l-72.11-3.527m-4.582 15.409l34.57 1.713m-59.344-3.997l14.98 1.142m1105.646 41.11l122.146-3.997" stroke="#4A4A4A"/><path stroke="#4A4A4A" stroke-width="3" d="M1229.283 468.86v27.407l135.397 1.17v-98.235l18.598-.697"/><path d="M1399.25 458.583l116.96-1.142m-285.775 26.264l134.245 1.142m-.576-75.367l-133.093 5.138m-129.851 6.277l112.567-2.28m-68.563-32.545v95.922" stroke="#4A4A4A"/><path stroke="#4A4A4A" stroke-width="3" d="M1210.27 495.696h3.457v-26.404"/><path d="M1077.636 499.455c5.179.748 8.92 2.074 11.225 3.977 2.304 1.903 7.022 3.035 14.153 3.396 5.992 1.21 9.757 2.956 11.293 5.24.576.571 7.22-.766 15.985 4.488 5.842 3.502 17.507 5.906 34.993 7.213l35.955 3.638m175.588 25.017L1511.6 563.07m-138.854-3.997l-.218-10.501c-1.804-5.8-1.924-9.722-.358-11.767 0-.57 4.61-3.426 8.642-.57 4.034 2.854-1.728 11.99-4.033 12.56l-.102 10.278m-244.765-9.135v-4.925h-1.612v-4.37h5.99v-1.285h11.985v6.951h-11.753v-1.296h-3.457v4.354M916.43 173.1l10.946-117.62m-24.198-22.839l-5.79 127.835m94.197-25.172l22.132 3.582m-25.523 8.295l41.162 7.076m6.482 6.22l-49.117-7.933m-4.61 15.988l74.28 11.511m-78.225 1.669l84.031 9.658m-87 1.142l62.711 6.195m-66.28 5.663l37.74 3.055" stroke="#4A4A4A"/><path d="M-77.4 46.76l245.74 73.903" stroke="#4A4A4A" stroke-width="4"/><path d="M-56.195 181.835l171.765 35.8" stroke="#4A4A4A"/><path d="M-57.957 237.66l194.845 32.504" stroke="#4A4A4A" stroke-width="3"/><path d="M98.285 204.935v110.906" stroke="#4A4A4A" stroke-width="4"/><path d="M135.16 225.16v77.549" stroke="#4A4A4A" stroke-width="3"/><path stroke="#4A4A4A" d="M-51.688 68.69l77.954 23.903v97.064m96.794 5.139v15.416"/><path d="M175.49 129.405v60.178" stroke="#4A4A4A" stroke-width="3"/><path d="M131.703 110.864v51.255M33.18 82.315V191.37m262.728-10.848l-10.371 58.238m-52.431-31.403l-4.609 25.694m-33.993-.001v20.863m1.152 61.357v12.561m18.437-91.925l.288 22.831m.864 46.827v23.41m119.265 7.993V305.66m162.789-158.668l-41.796 193.4m-64.529-3.425c-.385 0-10.755-.571-31.113-1.713m-57.457-5.424l-12.113-.287m-362.937-41.337l212.768 45.442 121.792 7.887m-121.569-15.664v24.799m255.298.675l736.27 47.857M371.96 348.957l-71.58-4.373m-378.422-17.622l219.54 36.84 79.509 2.855" stroke="#4A4A4A"/><path stroke="#4A4A4A" d="M227.345 372.367l-141.159-5.71-166.018-26.072m323.985 34.319l38.503-6.534m-14.98-8.8v6.516l-24.89 7.114m107.084 8.898l15.176 1.117m719.314 3.997c9.277.761 15.333.761 18.168 0 4.253-1.142 11.523 1.142 13.252-.571 1.728-1.713 3.028 9.088 8.79 2.236 2.276-2.707 2.001.545 3.781 1.19 2.725.987 5.66.718 7.75-3.426 1.69-3.35 3.334-3.008 6.62-.83.797.527 2.532.994 5.206 1.4 3.57.762 5.549.382 5.933-1.141.576-2.284 2.636-2.855 5.426-2.855s-.46 4.246.858 3.997c1.704-.322 5.046-1.213 5.323-3.426.277-2.213 3.545-1.183 4.472-.57 2.53 1.67-1.729 4.567 2.304 3.425 2.69-.761 3.983-2.094 3.88-3.997-.927.141.48.141 4.223 0a617.06 617.06 0 0 1 11.107-.32l13.055-.25c.07 2.134.64 3.466 1.71 3.996.7.347 1.488-.571 2.9-1.713 1.41-1.142 3.015.048 4.66.266 3.829.508 4.896-.72 5.648.305 1.552 2.116-1.666 5.139 1.79 5.139 3.458 0 12.1.57 12.676-5.139.576-5.71 4.006-2.933 5.186-2.284 4.006 2.206-.58 7.994 5.185 7.994 5.766 0 7.49-4.568 7.49-8.565 0-2.664.96-3.045 2.88-1.142l43.982-1.257c6.401 1.98 9.794 2.4 10.178 1.257.576-1.713 4.33 2.284 4.33 2.284.41.571 1.207 6.283 4.312 3.997 3.105-2.286 3.608-5.02 2.88-8.565-.484-2.363 3.043-2.363 10.581 0l6.128 2.284c4.868 1.086 7.557 1.467 8.067 1.142 3.269-2.082-3.734-3.567 0-6.28.588-.428 10.475-3.581 8.642 0-2.985 5.833 1.771 6.28 5.228 2.854 2.305-2.283 6.131-3.616 11.48-3.996l13.252-.571v34.258"/><path stroke="#4A4A4A" stroke-width="3" d="M1100.858 406.479l-1.21 88.075 110.046 1.142m4.033-77.081V403.77h16.708v22.268m154.987 89.071l129.059 2.854"/><path d="M1339.905 381.502v102.203m-70.291-103.063v103.634m-65.106-101.883v37.141m4.87 63.029h-108.002m-43.212 13.133c10.755 1.142 16.325 2.093 16.709 2.854m135.973 31.262c35.338 5.71 54.159 9.135 56.463 10.277 2.305 1.142 9.987 1.903 23.047 2.284 7.682 0 12.099.571 13.251 1.713 1.153 1.142 24.097 3.841 68.832 8.099" stroke="#4A4A4A"/><path d="M1279.561 555.076c3.841-9.897 8.834-14.084 14.98-12.561 9.219 2.284 10.37 3.426 10.947 13.703m71.292-7.422c-2.69 1.142-4.226.76-4.61-1.142m-166.51-17.842v14.274h-1.728l-.576-14.274-1.729-1.142-.576-10.849h6.914l-.576 10.278zm-66.843 16.369v3.997h6.33v-3.997m-71.427-37.353v9.135h-1.152v-9.135l-1.728-1.713v-9.135c2.304-.381 3.649 0 4.033 1.141.384 1.142.384 4.378 0 9.707h-1.153zM939.476 66.9l-13.863 112.365m-9.76-134.633l-9.175 122.023m86.956-37.52l12.1 2.284m-15.556 9.706l32.264 6.28m-38.602 15.417l66.185 11.213m-7.417-7.216l-57.616-9.136m77.438 28.138l-82.047-12.15m70.57 21.154l-74.027-8.023m-4.032 13.113l47.7 4.031m-50.611 4.483l28.052 2.427m.209-.073l-18.437 45.677m36.655-51.178l-28.59 75.16m-782.31 347.147l48.05 11.959 129.522-9.519-13.681-3.635" stroke="#4A4A4A"/><path d="M290.035 609.158c-1.974-43.137-2.77-67.18-2.385-72.128.384-4.949.779-30.2 1.184-75.753-4.193-17.129-6.29-29.69-6.29-37.684v-10.848l-24.774-11.99-9.219-1.713-1.152-1.142c-2.689 2.664-5.378 3.045-8.066 1.142-4.033-2.855-6.914-2.855-6.338-4.568.576-1.713 5.762-3.997 9.218-1.713 2.305 1.523 3.65 2.855 4.034 3.997h2.304l3.457-5.139-5.761-7.423-2.083-2.03c-5.294.874-8.44.661-9.44-.637-1.501-1.948.108-3.034-1.73-4.184-7.803-4.885-6.852-9.906-11.46-10.477-4.61-.571-1.655-8.77 11.02-4.203h1.968l-3.256-4.162c-9.436 1.523-14.004.38-13.706-3.426.1-1.808-2.289-3.424-3.001-5.604-.259-.793-.074-2.16.554-4.102 8.862-1.85 14.246 1.005 16.153 8.564 0 .762.385 2.094 1.153 3.997l3.056 2.873c4.218-8.247 7.232-11.87 9.043-10.867 0 0-2.798 3.58-4.033 5.57-.521.84.218 2.695-.218 3.578-.599 1.211-3.035 1.582-3.239 2.843-.954 5.897-.658 7.119 3.239 9.685 3.897 2.566 3.527 2.48 4.251 4.522.416 1.173.742 2.485.976 3.935 3.318 1.609 5.714 2.603 7.186 2.984 2.209.57 5.666 5.792 5.09 7.505-.576 1.713 4.033-6.364 9.218-3.509 5.186 2.855 0 9.136-5.761 7.994-3.841-.761-4.802 1.142-2.881 5.71l24.198 11.99v-50.816c-1.155.11-1.933-.136-2.333-.737-.767-1.151-.59-3.558-1.236-5.906-1.152-4.187-5.532-7.492-13.14-9.915-4.224-.38-5.185-4.758-2.88-13.133 0-1.522-.192-3.425-.576-5.71-13.983-9.954-24.239-14.932-30.769-14.932-4.225 0-7.729-.732-10.512-2.196l-5.388-4.743c-3.457 2.02-5.57 2.84-6.338 2.459-1.152-.571 3.457 2.284.577 3.997-2.881 1.713-12.1-.571-12.1-1.713 0-1.142 2.881 5.71 0 6.28-2.88.571-6.914-1.141-5.761-6.851.768-3.807-.384-3.045-3.457 2.284-1.537 5.71-2.497 6.851-2.881 3.426-.384-3.426 0-5.14 1.152-5.14-6.698-.455-8.702-2.776-6.013-6.963-.676-.195-5.703-4.702-1.477-6.74 2.818-1.358 4.93-1.358 6.338 0-.502-2.664 1.165-3.476 5.001-2.435 5.754 1.56 7.674 1.865 8.25 4.72.577 2.854 8.643 1.141 9.795 3.425.769 1.523 2.113 2.474 4.033 2.855l4.034-3.426c.384-3.806-.577-5.519-2.881-5.138-2.305.38-5.378.57-9.219.57-5.573-2.147-7.878-4.05-6.914-5.71.965-1.658 1.433-2.8 1.405-3.425-1.956-1.817-1.656-4.101.9-6.852 2.555-2.75.866-3.701-5.067-2.854-2.89 1.271-5.043 1.842-6.456 1.713-2.12-.195-4.61-.571-5.762-2.284-1.152-1.713-3.246-1.529-5.946-4.613-1.858-2.122-2.638-1.669-3.048-3.435-.132-.57 2.26-.66 2.232-1.854-.012-.482-1.428-1.682-2.005-2.335-6.417-7.268 1.435-12.498 7.383-9.643 5.947 2.855 5.953 4.18 9.266 4.75.854.148 2.169-.81 2.745-3.665.576-2.855 2.625-3.766 5.506-3.195 1.92.381 3.444-1.063 4.571-4.331 4.106-3.924 6.999-4.38 8.68-1.37 2.522 4.517-1.152 7.994-3.457 7.423-1.272-.315.035.054 4.033 2.612.553.353 1.513 1.196 2.881 2.527.996-2.949 2.263-4.233 3.8-3.852 2.304.57 2.38-6.07 6.99-5.5 3.073.381 3.79 3.046 2.153 7.995l4.997-.915c3.788-.008 4.914 1.51 3.378 4.556-.047.094-1.108 1.937-1.152 2.033-2.121 4.562-3.362 9.742-.925 8.199.349-.22 4.958-3.38 5.534-2.239.576 1.142-5.117 4.978-4.61 5.71 1.414 2.035 4.034-5.139 7.49-3.997 2.305.761 4.226 2.664 5.762 5.71 1.487 6.459 1.078 9.879-1.226 10.26-3.457.57-5.548 1.343-6.482-1.742-.934-3.086-6.12-1.667-4.391-4.522 1.729-2.854-4.033-.66-5.762-2.943-2.162-.542-5.588 4.95-8.411 3.514-1.882-.957-3.112-2.809-3.688-5.555-3.569-3.529-6.122-3.77-7.658-.725-2.305 4.567-2.137 7.422-3.865 6.28-1.728-1.142-1.728 5.14-2.305 5.14-.576 0 8.68 1.572 3.457 5.353-5.223 3.782 2.42 1.15 4.864 1.198 1.558.03 1.784 1.442 3.203 1.442 1.418 0 2.304.57 2.304 3.996 0 2.284 3.08 4.738 9.239 7.361l6.545 3.165c16.365 4.783 25.892 9.839 28.58 15.168 2.689 5.329 4.994 5.71 6.914 1.142l-.576-20.555c.384-4.948-1.152-9.706-4.61-14.274-2.88-4.568-7.49-26.836-15.556-31.403-2.304-1.142-11.523-15.987-19.013-16.558-7.49-.571-14.404-13.704-14.404-14.275 0-.38-2.304-1.141-6.914-2.283-5.377.38-8.258-.19-8.642-1.713-.576-2.284-7.816 6.28-12.425 1.713-.894-.887.616-2.092.326-2.881-.472-1.283-.088-2.797 1.152-4.542-4.225 2.284-6.914 2.665-8.066 1.142-1.729-2.284-10.37-.571-13.828-5.71-3.457-5.138-5.185 2.284-9.795 0-4.609-2.284-4.609 2.284-8.642-1.142-4.033-3.425-12.67-.492-13.246-5.06-.576-4.568-14.136-.252-5.592-13.782l-2.48-3.425c-.768 3.045-2.112 4.187-4.033 3.425-1.92-.76-4.033-.76-6.338 0-6.448-1.13-10.057-4.17-10.825-9.118 0 0-7.612 3.98-7.035-8.582-.577-3.425-2.5-4.567-1.348-9.135-1.718-2.616-5.558-.768-6.692-5.33-.756-3.04.963-4.5 5.159-4.376l-5.16-3.4c-9.514 1.528-10.949-.296-11.708-6.312-4.511-.799-10.488-4.274-9.09-9.473.934-3.467 2.672-3.733 5.216-.8.247-8.472 3.251-10.995 9.013-7.57 5.762 3.426 6.79 7.282 3.086 11.567 1.51.483 2.375.781 2.592.895.217.114.87.612 1.958 1.495 1.576 2.213 1.98 4.081 1.212 5.604-.768 1.523-.768 2.855 0 3.997 2.245 1.56 3.513 2.07 3.804 1.529.29-.54.29-2.237 0-5.09-4.432-6.222-4.902-9.032-1.411-8.43 0 0-1.695-20.31 10.404-14.6 8.066 3.807 9.178 8.08 3.335 12.818v2.924c3.323-2.298 5.561-1.735 6.713 1.691 1.729 5.139 1.93 6.874.777 8.016-.768.761.038.882 2.42.361 5.3-.24 7.567 1.732 6.799 5.92-1.152 6.28.576 7.422-1.729 8.564-1.536.761-.96 2.028 1.729 3.8 2.371-6.754 4.517-10.322 6.438-10.703 1.92-.38 3.083.144 3.488 1.574 1.396-3.045 3.247-3.045 5.551 0 3.457 4.567 4.755 7.82 1.139 10.69-3.615 2.87-4.85 7.067-10.962 3.774-4.075-2.195-6.673-1.59-7.795 1.814l3.87 5.038 11.523 13.132c-1.597-7.613.293-11.038 5.67-10.277 0 0 1.735-2.402 4.616-.69 2.606-.435-4.615-4.653-1.068-6.162 2.365-1.005 4.67 2.04 6.914 9.136 1.152-4.187 2.689-6.09 4.61-5.71 1.92.38 2.496 1.713 1.728 3.997 2.688.38 3.84 1.332 3.457 2.855-.577 2.284-1.729 5.71-4.61 4.567-1.92-.76-1.728.19.577 2.855 4.225-3.426 7.49-4.948 9.794-4.567 0 0-.094-4.006 5.73-3.628 5.824.378 10.403 3.057 10.979 5.911.384 1.904.96.952 1.728-2.854-.289-4.26 1.103-6.9 4.176-7.917 4.61-1.527 4.702-9.118 12.532-2.213s2.305 9.559 2.882 9.559c.576 0 9.794-1.142 10.37-5.14" stroke="#4A4A4A" stroke-linecap="round"/><path d="M181.097 135.404c.314-.862.4-1.414.255-1.656-1.995-3.334-3.619-5.093-7.219-4.567-3.696.539-8.493-6.506-5.64-9.644 1.9-2.092 1.9-3.395 0-3.908-5.02-.046-8.448-2.856-10.287-8.429-.576-.571-10.396-1.893-7.188-13.997 0-.455-8.741 4.332-11.142-1.118-.609-1.383.631-3.046 0-6.312 0 0-9.27-7.176-8.695-11.744l-5.747-4.914c-2.29-2.935-1.4-4.403 2.67-4.403 6.105 0 4.343 3.926 7.249 4.637 3.684.901-.781-4.786 8.437-3.073 9.295 3.073 2.097 5.482 5.594 10.146 1.15 1.535 2.954 2.624 3.7 2.251.785-.392-1.464-4.07-.442-5.19.962-1.055 4.107 2.982 4.412.839.304-2.143-8.647-12.585-8.067-13.132 3.457-3.264 7.498 4.764 10.26 10.99 1.02 2.295 2.778-7.714 5.873-6.423 3.094 1.291-1.354 5.71-2.881 9.707-.103 2.893 0 3.693.179 5.199.178 1.505 6.194-6.185 8.067-2.76 1.874 3.426-7.863 5.599-6.499 9.137 1.138 2.95 13.2-2.652 11.28 2.393-1.918 5.045-1.773 6.744-1.453 7.657.32.914 2.83 2.925 2.83 2.354 0-.57 2.27-7.713 7.49-9.706 1.053-.402 1.96.512 0 2.855a190.937 190.937 0 0 0-3.793 4.678c2.68-.41 3.635.528 2.867 2.811-1.06 3.154 3.649.935 5.24 2.441.073.069.566 1.148.295 3.202-.271 2.054-.788 4.507 1.545 5.24 2.332.733 1.628-3.765 2.587-5.24.959-1.475 8.807.596 9.12-1.142.698-3.877-5.47-1.252-10.947-7.993 0 0-2.783-3.204-3.23-8.565-.453-2.86-4.746-8.5-.295-9.92 4.45-1.422 9.227 1.88 8.1 5.923-.752 2.696.68 3.625 4.298 2.787l-.23-4.223c-2.063-.638-2.447-2.443-1.153-5.415 0 0-3.665-9.329 0-10.192 3.665-.863 3.141.501 5.159 1.39 1.459.642 2.633.18 3.522-1.39.326-1.956-.42-4.088-2.24-6.395-.877-1.113-.43-4.399 3.603-2.686 4.034 1.713 1.763 4.776 4.238 6.983.671.6 1.838-.41 2.054-1.37.71-3.172-1.62-3.177-1.377-7.466.12-2.123 3.093-5.75 3.986 1.358.894 7.11 1.292-.172 1.427-.787.768-3.498 3.555.253 5.5 3.018 2.272 3.23.631 9.543 2.936 8.972 2.304-.57 2.96-.313 3.933-1.627 2.197-2.968-.182-4.692 2.404-6.937 1.725-1.497.38-2.639-4.033-3.426-1.587-1.392-.076-1.707 4.534-.945 4.609.761 4.826.315.652-1.339-9.07-5.55-11.494-8.515-7.268-8.896 2.474.133 3.966.631 4.476 1.495.496.926.917 1.415 1.261 1.466 1.02.15 1.313-.837.879-2.96m28.915 112.397c-1.939-.192-2.525.373-1.76 1.694.89.427 1.637.427 2.244 0 3.323-2.339 6.398-.709 5.822 6.143-.576 6.851 1.777-1.45 3.19-1.772 2.937-.669-.885 6.405.843 6.91 1.687.824 2.816-10.232 13.763-1.553 0 .57 9.86-1.62 9.86 7.263 0 0 3.309.88 3.658 2.919.184 1.078.022 3.57-3.082 3.933 0 0-.576-2.726-1.728-2.855-1.772-.199-3.23 3.289-3.457 4.568-.295 1.652.444 2.096 0 3.425-.584 1.744-6.338 3.426-7.49-.57-.769-2.665-3.28-1.662-7.535 3.009-2.328 0-4.226.417-5.696 1.25-2.866 1.626-4.81 4.398-7.511-.834 0 0-.431-.167-.82 0-.389.167-2.385 0-2.428 2.089-.068 3.287-1.921 9.6-6.106 5.196-4.185-4.403-5.229-1.192-6.202-2.717-.798-8.338-6.924-3.426-5.772-9.136.768-3.806-1.15-3.996-5.752-.57l-8.642.57 33.417 21.126-4.033-7.993" stroke="#4A4A4A"/><path d="M301.769 599.548c-1.987-38.022-2.789-60.65-2.405-67.881.577-10.849 1.729-29.69.577-32.546-.769-1.903-.593-13.512.528-34.829-2.657-16.367-4.946-25.312-6.866-26.835-1.92-1.523-1.92-21.506 0-59.952l-1.729-12.56 3.457-6.852c6.914-6.09 11.908-8.946 14.98-8.565 4.61.571 17.861 2.284 20.742 10.848 0 0-2.305.571-2.88 3.997-.577 3.426-3.458 8.565 4.609 9.707 0 0-1.153 5.71.576 6.28 1.728.571 5.761 1.142 5.761-1.713 0-1.903.192-3.425.576-4.567l-1.728-1.713c.384-.762.768-1.142 1.152-1.142.576 0 31.113-.571 37.45-10.278 0 0-3.456 4.568-2.304 6.281 1.152 1.713-5.185-1.142-4.61 2.855.577 3.997 0 6.851 2.305 6.851 0 0-12.675-5.71-12.675-.57 0 5.138 2.902 6.75 5.782 6.75 0 0 2.284 10.379 10.926 5.81 2.69-1.902 2.497-4.567-.576-7.993 4.763 3.252 7.836 3.632 9.219 1.142 2.075-3.735 2.586-5.115 2.01-6.827-.576-1.713 8.937.547 8.937-7.447 0-5.329-1.92-7.613-5.762-6.852 6.034-1.016 9.051-2.665 9.051-4.95 0-3.425-.408-4.756-5.018-4.756-3.073 0-2.206-1.17 2.6-3.508 4.718 1.958 7.826 1.958 9.325 0 1.5-1.958 1.315-4.405-.552-7.34 4.495.38 7.127-.762 7.895-3.426 1.152-3.997-.285-8.156-5.15-8.156-4.864 0-5.384-3.258-8.016-2.598-2.631.66-2.296 2.043-4.373 2.818-2.077.775-4.033-2.913-4.033 1.084 0 1.713-5.762 2.284-.576 6.852 3.456 3.045 1.728 4.187-5.186 3.426-1.724-.86-2.92-.285-3.586 1.725-.3.907-1.998 3.894-2.175 5.126-2.314-1.239-10.371-1.672-7.49 3.426 1.92 3.398 2.88 5.035 2.88 4.91-1.233-1.819-2.61-2.248-4.132-1.288-1.032.651-4.098 2.885-.477 4.943 2.414 1.37 4.558 1.942 6.432 1.712" stroke="#4A4A4A" stroke-linecap="round"/><path d="M352.947 338.68c-.384 2.664-6.146 7.803-17.285 15.416-3.457 1.522-5.761 2.284-6.913 2.284m648.193-143.433l11.624.749m1.787-.654l-10.546 24.006m27.56-29.39l-26.408 69.357m43.211-73.655l-29.087 80.936m38.307-84.361l-31.113 88.5m40.331-90.785l-32.841 94.21m43.212-97.635l-35.722 101.632M307.818 635.513c2.43-17.463 7.87-26.766 16.321-27.908 12.676-1.713 10.49-3.255 13.252-3.426 2.762-.17 3.457-1.142 5.185 2.284 1.153 7.423 5.358 18.76 3.63 26.183" stroke="#4A4A4A"/><path d="M208.918 176.67c-.81-.184-8.726 1.038 0-12.856 2.725-4.338-5.255 2.784-11.633 3.709-3.526.51-8.877-1.768-6.884-7.843.035-.105.069-.21.115-.301 2.866-5.714 10.409-.202 11.028-3.45.467-2.454-4.16-2.139-10.012-4.538-1.432-.588 2.252-4.717.84-5.482-1.704-.923-4.962-.165-8.078-.657-5.282-.833-8.8-10.86-2.71-10.19" stroke="#4A4A4A" stroke-linecap="round"/><path d="M262.692 157.932c3.411-2.732 2.701-5.285 2.23-7.718-.284-1.468.054-2.737 0-4.255-.072-2.029-.289-4.36 1.706-6.856 1.513-1.893 6.004-.163 6.892-2.411.711-1.799-4.751-1.842-4.456-3.751.397-2.576 5.275-2.705 5.846-5.249.37-1.65-3.167-1.728-3.944-3.234-2.678-5.19 4.661-1.883 4.823-4.61.227-3.82-4.066-7.194-3.42-10.966.502-2.925 5.218-3.534 6.375-6.27 2.688-6.356-4.63-6.71-4.59-12.185.038-5.12 14.144 1.391 17.336-2.574.42-.522.178-1.383-.071-2.004-1.25-3.12-2.169-6.54-4.372-9.089-8.687-10.047-9.084 1.26-12.784 4.208-8.782 6.998-7.47-2.218-8.026 7.941-.042.777-.557 1.734-1.315 1.938-12.395 3.332.195-1.908-7.8-5.242-1.701-.71-3.286 2.286-5.12 2.087" stroke="#4A4A4A"/><path d="M236.55 49.6c-5.91-13.513 7.95-17.286 15.8-6.695 1.153 1.555-5.31 16.776-6.084 18.637-2.024 4.868-9.175-.291-11.214.863-5.738 3.248 12.598 22.29 16.12 26.149.551.603 1.609-.33 2.413-.496m-88.971 46.546l5.824-6.404m105.88 115.128c-4.993-19.413-9.218-29.5-12.675-30.261 0-.571-35.722-23.41-37.45-22.839-1.729.571-12.676 3.997-14.405 3.997-1.728 0 7.49 9.135 0 7.994-4.993-.762-5.377.76-1.152 4.567 4.225 1.523 3.65 2.474-1.728 2.855-5.378.38-6.146 2.758-2.305 7.132l4.61 4.858c7.297 4.188 11.138 7.804 11.522 10.849.385 3.045 4.802 6.47 13.252 10.277 9.219 6.09 14.596 11.23 16.133 15.416 0 .571 9.218 7.994 10.947 17.7 1.152 6.471 3.84 11.8 8.066 15.987 3.073 7.233 3.84 14.846 2.304 22.84 0 1.141-1.152 12.56-.576 13.131.576.571 4.61 2.284 5.186 0 .576-2.284 2.88-13.703 1.152-17.129m61.649 60.523c1.536.38 3.265-.38 5.185-2.284l-.864-2.284 3.169.571c2.689-2.664 4.033-3.235 4.033-1.713 0 1.523.96 2.474 2.88 2.855 4.61-.761 5.762-2.474 3.458-5.139-2.305-2.664-4.61-2.664-6.914 0l-1.729 1.57-1.728-.999c-3.841-3.045-6.53-3.806-8.066-2.284-1.537 1.523-3.073 1.333-4.61-.57h-2.88l-2.881-2.855-1.729-2.284m9.218-34.829c6.147-.38 11.332 1.713 15.557 6.28 6.338 6.852 6.914 9.136 8.066 9.136.769 0 4.033.38 9.795 1.142.768 3.426-.192 4.948-2.88 4.567-3.258-.46-9.223.733-11.527-1.104-.548-.437-.462-1.553-.573-2.321-.576-3.997-.576-5.71-2.305-5.71-1.728 0-12.099 0-13.251-4.568-1.153-4.567-1.729-.57-2.305-5.138 0-.381-.192-1.142-.576-2.284zm-23.797-177.184c-.07 4.1.595 5.585 1.995 4.454-.008-7.392 1.878-8.6 5.658-3.623 5.67 7.466.357-.99 2.26-2.51 1.795-1.432 7.07-1.981 9.951 2.51 2.88 4.492-.613 6.132 1.053 6.205 6.68.29 9.562 1.432 8.642 3.425 0 .655-3.84.173-11.523-1.447-1.798-.38-4.067 3.528-2.308 5.824 1.759 2.296 3.14 5.662.835 9.088 0 .57 8.387 9.374 4.354 9.374s-4.948-2.608-4.61-1.713c.526 1.389 4.61 6.28 6.339 6.28 1.728 0 2.04 2.918 2.304 1.143.494-3.32-1.092-6.844 4.094-6.844 3.457 0 5.365 1.044 5.725 3.13l8.064-3.408c-3.76-2.07-4.68-3.867-2.76-5.39.102-.081 1.537-2.046 1.64-2.137 2.558-2.285 6.01-1.434 5.78 1.19a88.96 88.96 0 0 1-.649 5.465c2.967 3.234 2.53 4.66-1.31 4.28-3.842-.38-7.001.39-9.479 2.312 1.816 5.079.61 7.238-3.614 6.477 0 0-.925 3.658-3.806 1.374-2.88-2.284-.685-4.258-2.533-2.952-1.231.871-5.281 1.855-12.15 2.952-3.807 6.74-5.71 10.68-5.71 11.822 0 1.713-.518 18.517-2.246 19.659-1.729 1.142 10.888-8.24 13.193-8.24-1.695-1.326-2.702-5.596 1.331-6.167 2.689-.38 4.55.533 5.582 2.741 2.898-5.882 5.62-9.68 8.165-11.395 3.819-2.573 1.68-4.5 5.806-6.305 2.75-1.203 5.584-3.487 8.5-6.851l-2.144-5.427m11.798-9.583c-.576 0-2.74-2.69 1.293-3.832 2.688-.762 4.609-.381 5.761 1.142l-.576-3.426c-5.61-1.842-7.623-4.106-6.04-6.79 1.582-2.684 3.313-3.677 5.195-2.98.563-4.906 3.342-6.217 8.335-3.933 7.49 3.425-5.517 5.746-1.295 6.706 3.773.858 5.232 2.306 4.376 4.343l4.41-.772c-.464-2.284 1.226-3.235 5.067-2.855 5.761.571-4.671-4.206-1.214-5.348 3.457-1.142 6.543.86 5.967 3.143-.576 2.284 9.192-2.363 9.192-2.934 0-.57-3.197-8.18.836-8.18.576 0 .89 1.81 2.205 1.047 1.315-.764-3.617-3.224-3.04-5.508.576-2.284 1.561 1.098 2.304.651 1.562-.94-4.604-5.752 1.256-4.312 5.861 1.44 2.336 9.064 4.506 6.025 1.906-2.671 5.207-3.708 1.174 3.144-1.728 2.855-1.174 4.279-.598 5.42.576 1.142-4.61 5.71-5.762 3.997-.768-1.142-4.033.762-9.795 5.71 3.457 4.568 3.842 7.232 1.153 7.994-4.033 1.141-6.936-1.254-6.936-4.11 0-2.854-6.553 9.498-9.462 6.964-1.94-1.689-4.463-1.357-7.572.996.616 3.143.155 4.524-1.381 4.143-1.537-.38-2.944-.336-4.224.133.511-4.276-.385-6.033-2.69-5.272-3.457 1.142-1.869-1.306-2.445-1.306zM213.887 629.477c-2.551-19.149-4.211-29.104-4.98-29.865" stroke="#4A4A4A"/><path d="M216.974 627.018c-2.689-24.742-4.61-37.874-5.762-39.397-1.152-1.522.769 11.61 5.762 39.397z" stroke="#4A4A4A" stroke-linecap="round"/><path d="M260.762 636.725c.576-2.792-2.88-13.133-10.37-14.275 0 0 9.218 2.284 10.946 7.137.904 2.54 1.147-3.176-2.288-10.557-3.13-6.725-9.766-14.957-12.788-17.134-6.338-4.568 12.066 6.676 15.89 18.072 0 0-4.903-11.462-12.06-19.666-3.565-4.087-7.301-7.819-11.708-8.388-2.362-.582 19.393 3.328 25.731 26.738 0 .57-4.095-19.68-10.432-24.818 0 0 9.958 6.468 11.112 12.058.576 0-7.824-33.308-8.333-35.232-.51-1.924 7.757 11.252 11.214 33.52l1.152 3.996c-2.27-20.287-4.366-31.572-6.287-33.856 0 0 10.32 13.301 9.744 27.576-.302 7.49 1.11 3.954 2.88-11.536.32-2.793.65-7.976.988-15.55 2.405 5.928 1.814 16.898-1.772 32.911-.115 1.638 4.11-11.044 7.229-15.095.213-.277 1.735-2.045 1.937-2.266.524-.574 2.77-2.551 3.18-2.632m-56.922 45.724c-1.051-10.052-2.153-15.84-3.306-17.362m4.826 17.569c.576-1.713-.82-19.25-2.549-20.963m31.986 10.896c-.576-1.142-13.828-14.274-26.503-13.703m1147.13-148.451c-10.371-8.755-18.245-24.742-23.623-47.962-8.066-34.829-6.914-35.4-6.338-42.822" stroke="#4A4A4A"/><path d="M1209.694 536.234l.576-67.374" stroke="#4A4A4A" stroke-width="3"/><path d="M1210.846 470.002c13.828-3.426 22.086-9.326 24.775-17.7m-25.927 15.988c1.152-13.704 1.728-26.836 1.728-39.398m170.809 109.855c2.127-12.333 3.19-20.593 3.19-24.78 0-4.188.385-16.749 1.153-37.684M260.186 197.65c13.828 22.078 21.318 38.065 22.47 47.962 1.152 9.897 1.569 13.414 1.249 10.552m50.029-8.839l4.033-4.568c5.377 1.523 8.258.952 8.642-1.713.384-2.664 1.153-3.045 2.305-1.142 5.762-3.425 7.49-5.9 5.185-7.422-3.457-2.284-6.337-.571-8.066 1.713-1.152 1.522-1.344 1.142-.576-1.142v-2.855m-31.112-9.136c-5.378-1.141-9.027-2.093-10.947-2.854-2.881-1.142-12.1.57-14.404 2.284m31.285-30.002c-2.036 8.201-4.398 12.302-7.087 12.302h-5.761c-1.92-6.09-3.841-9.326-5.762-9.707-1.92-.38-3.649-4.187-5.185-11.42m-11.54 101.469l-.56 15.58c2.305 1.142 3.841 2.094 4.61 2.855.768.761.96-.571.576-3.997-3.457-4.948-4.417-7.993-2.881-9.135 2.305-1.713 8.642 5.138 8.642 7.422s8.067-10.848 8.067-15.987m6.913 3.997c-5.377 6.47-8.834 13.703-10.37 21.697-.384 6.851-3.457 14.464-9.219 22.838-2.305 6.09-3.649 9.897-4.033 11.42-.576 2.283-1.152 13.703 2.305 15.416 0 0 5.185-3.997 5.761-6.852.384-1.903.768-3.426 1.153-4.568m13.252-15.987c-3.594 3.97-5.835 6.108-6.722 6.415-1.33.461-.487.454-1.652 5.5-.777 3.363-1.058 5.292-.845 5.785m6.914-26.264c3.84-9.136 8.642-15.226 14.403-18.271m4.477.909c-7.978 3.581-12.735 8.797-14.271 15.649m-2.9-31.313l-1.056 31.347m-9.296-72.547v13.132m-58.192 31.974c-5.761-5.329-9.794-5.329-12.1 0 0 0-2.304-8.564-8.641-5.138-6.338 3.426-3.457 7.993.576 7.993 2.688 0 5.953.762 9.794 2.284 5.762 1.523 9.027.952 9.795-1.713.768-2.664.96-3.806.576-3.426zm-19.59 2.855c23.047 12.942 36.683 22.649 40.908 29.12m-27.656-77.652v13.045m9.795-18.755v9.136m9.219-7.994v18.849m-.116 13.126l.116 59.951m733.608-48.326l-6.497 16.352m14.347-12.67l-5.129 12.67m12.1-8.564l-12.1 31.974m19.59-28.549L994.21 332.97" stroke="#4A4A4A"/><path d="M310.311 327.831c2.305 1.904 4.226 1.904 5.762 0 2.305-2.855 5.762-1.142 5.762-3.996 0-2.855-10.947-9.707-15.557-3.997-3.072 3.806-1.728 6.47 4.033 7.993zm60.497-18.271c4.993 2.284 6.722 4.378 5.185 6.281-2.304 2.855-2.304 6.28-5.761 5.71-2.305-.381-2.305.19 0 1.713 4.202 1.142 4.965 3.045 2.288 5.71-2.678 2.664-6.321 3.425-10.93 2.283l-1.729-1.713c-3.073-1.522-3.265-3.235-.576-5.138 2.689-1.904 1.92-2.855-2.305-2.855-6.53-3.045-8.45-5.33-5.761-6.852 2.688-1.523 5.377-1.523 8.066 0 .384-1.903 1.536-2.664 3.457-2.284 2.88.571-8.643-5.71-5.762-9.135 2.881-3.426 5.186-1.713 5.762-1.713.576 0 5.761 3.426 5.761 5.71 0 1.522.769 2.283 2.305 2.283zm-54.366-128.89c-4.855 2.146-7.84 1.348-8.957-2.393-1.53-.081-7.594-1.164-5.42-7.25.966-1.765 2.485-.484 2.485-2.491 0-2.628-4.034-2.423-3.967-5.13.044-1.806 1.559-2.467 4.543-1.984.768-2.493.576-3.93-.576-4.31-1.246-.411-2.35-1.018-1.944-2.324.158-.506 1.937-.454 1.944-1.526.02-3.403-13.252-1.86-8.642-6.998 4.609-5.139 8.737-3.372 9.794.57.705 2.63 1.857 2.63 3.457 0l1.152-3.996c-1.152-3.045-.96-3.997.577-2.855 2.304 1.713 2.617 6.536 2.88 3.426.674-7.956-.43-24.416-1.006-25.558-.147-.292-1.516-4.677-1.55-4.913-.055-.379 1.788-.907 1.55-1.718-.442-1.511-3.448-2.156-2.911-2.927 1.62-2.328 10.468.289 7.587 1.43-1.92.762-4.296.559-7.127-.61m53.007 74.264c8.45-6.852 13.06-10.468 13.828-10.849m-57.04 89.642s-13.251-11.99 4.033-14.845c4.994-1.142 7.682-2.094 8.066-2.855 1.921 4.187 3.457 6.471 4.61 6.852 1.728.57 9.794 11.42-4.033 14.274 0 0 8.642 2.284 8.642 4.568 0-1.142 7.49 1.713 7.49 5.138 0 0 5.185-2.284 6.914 1.142 1.728 3.426 3.457 4.568 2.305 6.28-1.153 1.714 2.304 9.136-6.338 7.423-.768-.38-1.537.381-2.305 2.284-.768 3.046-2.497 4.378-5.185 3.997-2.689-.38-3.265.761-1.729 3.426 3.073 3.045 2.497 4.377-1.728 3.997-4.225-.38-5.954 0-5.186 1.142-.768 1.142-1.728 1.142-2.88 0-1.153-1.142-2.69-2.284-4.61-3.426-6.145 1.142-9.602-1.142-10.37-6.852 0 0-8.067-.57-7.49-6.28.384-3.807.96-6.662 1.728-8.565l1.152-6.852c-2.688-.38-3.649-1.522-2.88-3.425 1.152-2.855-8.643-6.281-9.22-4.568-.575 1.713 2.306 4.568 1.153 5.71-1.152 1.142 5.186 9.135-.576 9.706 0 0-.576 6.852-4.61 6.852-4.032 0-12.098-1.713-12.675-5.71-.384-2.665-2.112-4.948-5.185-6.852-4.61-1.142-6.53-4.758-5.762-10.848 0-.571-4.609 2.284-4.609-2.855 0-3.426-.384-5.52-1.152-6.28-5.762 1.141-9.027.19-9.795-2.855-1.152-4.568-6.338-16.558 1.729-17.13 8.066-.57 13.251 5.71 13.827 7.994 0 0 6.338 0 6.914 2.855.384 1.903 0 3.997-1.152 6.28 3.073.762 4.033 2.285 2.88 4.568 0 0 7.49 2.284 8.067 3.426 0 0 9.795-4.567 17.86 2.855l5.186 5.139 6.914-5.71z" stroke="#4A4A4A"/><path d="M216.59 630.355c-3.97-20.115-6.722-30.553-8.258-31.314m10.37 28.548c.769-22.839 1.92-35.4 3.457-37.684 2.305-3.426-6.39 8.842-5.46 35.158" stroke="#4A4A4A" stroke-linecap="round"/><path d="M221.198 628.622c.558-7.045 14.672-26.981 14.858-27.975-.576 0-12.501 11.595-17.11 23.015" stroke="#4A4A4A" stroke-linecap="round"/><path d="M291.474 636.734c.348-3.983-4.785-20.564-10.547-21.135 0 0 7.261 1.142 10.142 6.851 0 0-.387-4.91-.59-9.13-.006-.129-.558-5.715-1.551-8.24.564 0 5.137 8.806 4.94 13.9-.197 5.092 3.232-11.255 1.84-13.9-.926-1.763-2.034-5.344-3.32-10.743 2.75 4.488 4.724 7.645 5.918 9.472 1.792 2.74-1.822 17.5-1.822 18.641 0 .762 1.728-4.187 5.185-14.845-2.472-9.95-3.593-15.497-3.363-16.638.154-.762 1.589 3.05 4.305 11.435l1.939-12.497c1.536 10.658 1.344 18.652-.576 23.98-2.881 7.994 5.761-19.412 5.761-21.125 0-1.713 1.153 11.42 0 16.558-.768 3.426-1.536 7.803-2.304 13.132l6.092-6.851c-6.846 10.981-10.03 17.667-9.55 20.057m-17.196-47.724c-.305-.901-1.802 1.693-4.49 7.784-2.69 6.09-5.063 11.195-7.121 15.315 4.95-8.993 8.82-14.363 11.61-16.11.86-.537-.284 1.793-3.429 6.99l-3.4 7.285c-3.187 9.865-6.105 16.146-8.753 18.842-2.649 2.697-4.518 6.213-5.61 10.548l-5.654.5.832-2.361m-32.666-27.556c-1.377-7.236-1.243-14.037.401-20.406-.083 10.154.354 16.093 1.31 17.818m4.524 28.014c2.64-13.806 6.265-21.851 10.875-24.135 6.914-3.426-6.568 1.018-8.314 24.555m-31.021-7.425c.384 0 2.93-.104 7.638-.312-5.476.208-8.022.313-7.638.313z" stroke="#4A4A4A"/><path d="M1378.508 534.521c1.152-8.754 2.689-14.845 4.61-18.27 1.151-1.904 1.92-51.959 2.304-150.165l-4.61 117.62-1.152 34.828c-2.689 3.426-4.033 8.565-4.033 15.416"/><path d="M1386.574 477.996l.576-14.275c12.292-2.664 21.702-10.277 28.232-22.838 6.53-12.561 15.94-34.449 28.232-65.661m-.577.571c-6.913-6.852-10.37-12.181-10.37-15.988M1210.27 468.86c4.033 0 12.675-13.703 13.251-30.261m-13.827 28.548v2.284s-6.914-6.28-6.914-30.832m6.337 32.545c-9.602-1.523-15.364-6.661-17.284-15.416m193.013-90.784c-3.073 98.587-4.994 149.403-5.762 152.448-1.152 4.568-4.033 10.278-4.61 17.7m12.676-71.371c1.537-62.425 1.729-95.16.576-98.206M377.146 175.954c-6.914 6.852-10.947 10.277-12.1 10.277-1.152 0-3.457 2.094-6.913 6.281-3.842 2.284-6.146 4.187-6.914 5.71-1.153 2.284-8.067 7.993-8.067 9.706 0 1.713-3.457 9.707-6.337 8.565-2.881-1.142-16.133 5.71-16.709 9.135-.576 3.426-7.49 21.697-8.066 25.694-.576 3.997-3.457 7.993-1.152 13.703M331.63 243.9l11.522-14.846c-3.072-.761-3.072-2.094 0-3.997 1.153-.761 2.305-.761 3.457 0 3.841-6.09 6.146-9.135 6.914-9.135 1.153 0 3.457 1.713 2.305 2.284-.768.38-3.073 3.235-6.914 8.564-.384 2.665-1.536 3.711-3.457 3.14m-40.331 30.547c1.152-9.516 3.073-16.748 5.762-21.697 2.688-4.948 3.84-10.087 3.457-15.416-7.298-1.142-11.14-2.093-11.524-2.854-.576-1.142-12.099-.571-13.251.57-1.153 1.142-6.338-7.993-9.795-8.564-3.457-.571-11.523-11.99-13.252-11.99-1.152 0-3.264-1.333-6.337-3.997" stroke="#4A4A4A"/><path d="M277.47 190.8c-.768 4.567-.576 7.612.577 9.135 1.728 2.284 2.88 9.135 2.304 11.99m33.994 9.135c.576-.57 3.457-14.845 2.88-15.416-.576-.57-8.642.571-10.37-.57-1.153-.762-5.378-3.997-12.676-9.707l-4.61-5.139m4.61 2.284c7.298 6.852 11.907 10.278 13.828 10.278m7.988-21.892c1.924 6.539 3.462 9.618 4.614 9.237m-49.476 74.89l-1.153 2.855c-5.377 1.903-6.721 4.948-4.033 9.135 0 0-.192 8.565 1.92 9.136 2.113.57 4.418 5.138 7.299 2.284.384 0 1.728-.762 4.033-2.284v5.138c-4.993 1.904-6.146 5.33-3.457 10.278 0 .38.96 1.142 2.88 2.284-.383 3.806-.191 6.09.577 6.851m24.775-45.677v11.99m-9.618 82.339c-.66-.258-.911-.679-.753-1.261 4.225-5.33 6.338-9.707 6.338-13.133m893.044 110.768c-2.305 1.523-3.457.38-3.457-3.426 0-5.71-3.457-5.71-4.61-3.426-1.151 2.284-.575 2.855-4.032 2.284-3.457-.57.576 6.852-4.033 5.71 0 0-2.305 3.997-3.457 1.713-1.153-2.284.576-6.852 2.304-7.423 1.729-.57.576-6.851 10.947-6.28 6.338.57 9.795 1.712 9.795 6.28 0 3.045.96 3.616 2.88 1.713 2.69.38 3.074 1.523 1.153 3.426-2.88 2.855-4.61 1.713-4.61.57 0-.76-.96-1.141-2.88-1.141zm31.113 10.277c-1.921 2.665-1.537 3.807 1.152 3.426 4.033-.57 3.457-.57 3.457-3.426 0-2.854 2.304 5.71 4.61 2.855 1.535-1.903 1.92-3.616 1.151-5.139 3.073 4.568 4.61 7.804 4.61 9.707 0 2.855 2.304 1.142 1.728-4.568-.576-5.71 2.305 6.28 3.457 5.139 1.152-1.142 2.88-3.997-.576-7.423-3.457-3.425-8.642-8.564-10.947-8.564m-8.066-5.139c-1.92-1.522-3.073-1.713-3.457-.57m5.761-23.411c0 5.33-1.92 9.136-5.761 11.42-3.457 1.903-4.225-.952-2.305-8.565l1.729-1.713m-12.1-.571c-.576 0-12.675 1.142-13.827 5.71-1.153 4.568-1.729 5.71-2.305 5.71-.576 0 .576 2.284 4.61-2.855 2.688-3.426 4.608-3.806 5.76-1.142.385 4.568 1.537 5.52 3.458 2.855 1.92-2.665 2.304-4.378 1.152-5.139l3.457-3.997" stroke="#4A4A4A"/><path d="M1220.64 451.731c-4.993 1.523-6.53.38-4.609-3.426 0 0-5.761 2.855-8.642.571-1.92-1.522-4.801-1.903-8.642-1.142l-4.034-.57c-3.072-1.142-5.377-1.904-6.913-2.284-2.305-.571 0-5.71 5.761-6.852m194.165-73.084c10.031-17.817 21.384-31.103 34.06-39.858m-25.993 22.729c12.675-13.703 21.125-21.697 25.35-23.98m-36.297 41.109c-1.153-2.664-2.69-4.568-4.61-5.71-1.92-1.141-5.761-5.519-11.523-13.132-1.536-4.567-3.073-6.851-4.61-6.851-2.304 0-9.218-4.568-9.218-5.71" stroke="#4A4A4A"/><path d="M1341.634 353.525c-1.153.57-21.894 10.848-19.59 14.274.769 1.142 1.729.952 2.881-.571-1.536 3.806-1.536 5.139 0 3.997 2.305-1.713 8.643-11.42 12.676-12.561" stroke="#4A4A4A" stroke-linecap="round"/><path d="M1388.385 369.223c2.634-.569 4.335-1.995 5.103-4.279.768-2.284 1.92-3.235 3.457-2.855 3.073 3.807 5.185 4.378 6.338 1.713 0 0 4.609 1.713 2.88-2.855-1.728-4.567-10.37-8.564-10.37-8.564l-8.067 12.561v1.142m-14.98-14.274c-8.45-4.948-13.443-6.09-14.98-3.426-1.536 2.665-4.61 3.616-9.218 2.855-3.15.761-5.877 1.713-8.181 2.855m22.585-28.549c-.577 0-6.914 12.562-10.947 6.281-2.69-4.187-3.265-3.045-1.729 3.426-1.152 7.613-3.649 6.851-7.49-2.284-.576 0-5.762 6.852-7.49 2.855-1.152-2.665-.768-5.139 1.152-7.423-6.53 5.71-9.218 6.662-8.066 2.855 1.392-4.6 6.279-11.24 11.379-13.132 1.23-.457 3.057-.111 4.177 0 5.762.57 10.371-1.713 10.947-2.284.576-.571 16.133-4.568 19.59-2.284 2.304 1.523 6.914.952 13.827-1.713 4.994-3.045 9.027-3.997 12.1-2.855 4.61 1.713 23.046 0 24.198.571 1.153.571 18.437-3.996 22.47.571 4.034 4.568 8.643 10.278 5.186 10.849-4.033 0-4.033-2.284-5.185-5.139-1.153-2.855-1.729 6.852-4.034 5.139-2.304-1.713-2.304-5.71-5.185-5.139-2.88.571.576 7.423-2.88 5.139-2.305-1.523-4.034-3.997-5.186-7.423 3.073 8.374 3.265 12.18.576 11.42-2.689-.762-4.61-3.236-5.762-7.423.769 6.47.385 9.326-1.152 8.564-1.536-.76-3.073-2.474-4.61-5.138.385 2.473-.191 3.567-1.728 3.282-2.304-.427-5.761 1.856-5.185-.998.576-2.855-4.033-2-4.61.998-.575 2.998-3.456 4.14-4.609 1.856-1.152-2.283 0-4.567-1.728-3.425-1.729 1.142-3.457 3.996-4.033 0-.576-3.997.576 5.138-2.305 5.138-1.92 0-3.457-1.903-4.609-5.71-.384 3.807-1.536 5.71-3.457 5.71-1.92 0-3.649-.57-5.185-1.713.768 3.426.384 4.949-1.153 4.568-1.536-.38-4.225-.761-8.066-1.142-3.457 1.142-5.377 1.142-5.762 0-.576-1.713-2.88-3.997-3.456-3.997zM295.868 344.162c1.179-6.7 2.536-10.621 4.073-11.763 2.304-1.713 4.609-6.28 4.609-7.993m9.658 21.164c10.078-9.161 16.845-14.313 20.302-15.455m-20.137-12.028c8.303-9.952 13.991-14.737 17.064-14.356m-32.067 6.235l-.582 20.15m-8.642-86.216v15.986m-19.757 65.928c-6.802-8.552-10.587-13.018-11.356-13.399-1.152-.57 5.118-18.746-7.96-24.278-8.717-3.688-2.28 8.87 19.316 37.677zm-30.945-31.67c16.885 14.442 26.864 25.66 29.937 33.653m-45.493-88.283v11.808m9.794-13.703v3.996m9.795 11.42v18.842m10.976-6.827c-6.55-.397-8.287.546-5.214 2.83 0 0-1.537 3.426 1.536 3.426s5.954 1.712 7.106 0M1481.064-5.613c-13.828 3.806-22.662 7.612-26.503 11.419-3.841 3.806-3.841 1.903 0-5.71-7.298-2.664-11.524-1.332-12.676 3.997-1.728 7.994-24.198 2.855-27.08 17.7-1.92 9.897-4.416 11.8-7.49 5.71-8.45-2.665-12.675-.19-12.675 7.422 0 .762-.768 2.474-2.304 5.139-1.92-4.187-3.457-4.187-4.61 0-1.152 4.187-2.304 5.52-3.457 3.997 0 3.045-1.344 3.806-4.033 2.284-2.688-1.523-3.649-3.617-2.88-6.281-2.69-3.426-4.226-2.665-4.61 2.284 0 0-7.49-3.997-7.49 3.997 0 7.993-10.947 2.283-8.066 9.135 1.92 4.568.96 5.71-2.88 3.426-1.537-3.045-2.69-3.045-3.458 0-1.152 4.568-2.304 9.135-5.185 9.706-2.881.571-6.914 7.423-1.152 10.849 0 0-5.762.57 0 5.138 3.84 3.046 4.225 4.949 1.152 5.71l-4.61-4.568c-1.92.38-2.688 1.333-2.304 2.855.576 2.284-3.457 5.139.576 6.28 4.033 1.143 2.88 3.998 2.88 4.568 0 .381-2.304 1.333-6.913 2.855-3.841-3.425-5.762-4.377-5.762-2.855 0 2.284-5.761 8.565-5.185 10.278.384 1.142 2.88 1.142 7.49 0-5.377 3.806-6.146 7.232-2.305 10.277 5.762 4.568-5.761 2.284-5.185 1.713.576-.57-4.61-3.997-5.762-3.997h-5.761c0-2.283.384-3.425 1.152-3.425 1.152 0 5.762-2.284 4.61-2.855-1.153-.571 1.152-3.997 0-3.997-1.153 0-7.49-.57-7.49 0 0 .571-1.73 1.142-1.73 2.284s-1.728 3.426-2.304 4.568c-.576 1.142-3.457 3.425-2.88 1.142.576-2.284 2.304-3.997 2.88-5.71.576-1.713 1.729-5.71 2.305-5.71.576 0 6.338-4.568 6.914-4.568.576 0 2.304-1.141 4.033-1.712 1.728-.571 2.305.57 4.033-.571 1.728-1.142 5.762-9.136-11.523-2.284-17.285 6.851-14.404 2.284-15.556 6.851-1.153 4.568-6.914 7.423-6.338.571.576-6.851 6.914-5.71 4.033-10.277-2.88-4.568 2.305-4.568-6.338-4.568-8.642 0-3.457-1.713 0-7.993 3.457-6.281 8.066-7.994 4.61-9.707-3.457-1.713-1.153-7.422-6.914-2.855-5.762 4.568-9.219-2.854-11.524 4.568-2.304 7.423 2.881 6.28-7.49 5.139-10.37-1.142-7.49 2.855-12.099-2.284-4.61-5.139-3.457-7.994-8.642-5.139-5.186 2.855-2.881 1.713-6.338 5.139-3.457 3.426-9.795 7.423-13.252 5.139-3.457-2.284-5.761-6.852-7.49 1.142-1.728 7.993 3.457 6.851-4.033 9.706-7.49 2.855-8.642 3.426-7.49-2.855 1.152-6.28 0-5.71 3.457-7.993 3.457-2.284 4.61-4.568 6.338-5.14 1.728-.57 4.033-6.28 0-2.854s-5.186-1.142-8.066 3.426c-2.881 4.568-5.186 5.71-5.186 4.568 0-1.142-1.152-3.426 1.152-5.14 2.305-1.712 5.186-5.138 1.153-5.138-4.033 0-12.676 0-5.186-8.564 7.49-8.565 12.1-6.28 13.828-9.707 1.729-3.426 2.881-3.996 5.186-4.567 2.304-.571 5.761-1.142 6.337-.571.576.57 3.457-10.849-6.337-4.568-9.795 6.28-9.795 7.422-10.947 9.706-.769 1.523-.769-1.332 0-8.564 0-5.71-1.345-6.471-4.034-2.284-2.688 4.187-4.033 5.52-4.033 3.997v-5.139c0-1.903.385-2.855 1.153-2.855 1.152 0 9.794-8.564 4.033-5.71-5.762 2.855-5.402-.47-6.914.725-1.512 1.194-4.426 2.13-5.002 3.843-.576 1.713-2.034 3.997 1.423 3.997 2.304 0 3.497 1.713 3.579 5.139v4.567l1.728 3.597c-4.609 2.55-7.298 1.352-8.066-3.597-1.152-7.422-4.61-12.56-8.066-9.706-3.457 2.855-8.316.57-7.49 5.139.826 4.567 0 2.284-1.729 3.425-1.152.762-2.496.19-4.033-1.712-3.072 1.142-4.417 2.854-4.033 5.138.576 3.426-4.609-6.28-4.609 0 0 4.187.768 6.746 2.305 7.676 2.304.973 3.072 1.65 2.304 2.03-1.152.572-2.88 7.994-5.761 3.427-2.881-4.568-2.305-6.281-2.881-6.281-.576 0-3.457 1.142-4.61 0-1.152-1.142-5.761-2.284-2.88-3.997 1.92-1.142 3.457-1.142 4.61 0 1.151.38 1.728.38 1.728 0 0-.57-4.034-11.99-6.338-6.28-2.305 5.71-6.914 7.422-8.066 6.28-1.153-1.142-5.186-3.426-5.186 1.713s5.762 4.568 5.186 2.284c-.384-1.523.192-1.142 1.728 1.142.633 4.568-.52 6.28-3.457 5.139-2.937-1.142-4.85-.557-5.738 1.756-5.393-.03-7.706-1.186-6.937-3.47 1.152-3.425-2.881-8.707-6.338-2.426-3.457 6.28-4.792 8.707-1.729 9.278 3.064.571 7.49 3.426 6.914 5.139-.576 1.713-5.715 3.997-9.218 3.997-3.504 0-5.35 2.284-2.305 3.426 2.03.76 4.143.76 6.338 0 2.689 2.283 4.033 3.616 4.033 3.996 0 .571 6.338 1.142 8.066-.57 1.153-1.143 2.305-.952 3.457.57-1.536 3.045-4.225 4.568-8.066 4.568-5.762 0-10.947 4.568-5.762 6.852 5.186 2.283 1.153 6.28-3.457 6.851-4.609.571-.72 2.32-4.609 3.426-2.13.606-2.245-7.423-7.43 0-5.186 7.423-5.848-2.186-8.675 2.284.704 3.806-1.418 5.329-6.365 4.568.384-5.71-1.536-5.71-5.762 0 0 0-2.729-7.994-4.457-1.142-1.153 4.567-2.497 4.948-4.034 1.142-.869-2.665-2.071-3.046-3.608-1.142-2.304 2.855-3.658-1.691-3.158-3.426 1.805-6.259 8.92-5.71 7.767-12.561-1.152-6.852-4.735-1.034-4.609-2.284.45-4.46 8.643-6.852 5.762-9.136-2.881-2.284-5.161 3.678-5.762 2.855-1.69-2.317-1.703-7.422 1.178-9.135 0 0 8.04 3.996 8.04-2.855 0-6.852-3.704-19.128-8.04-16.701-2.89 1.618-4.336 1.179-4.336-1.317-1.351-3.214-2.603-2.537-3.756 2.03-1.728 6.852-7.172 2.856-2.863-5.138 4.31-7.994 4.145-20.555-1.616-13.132-5.762 7.422-8.196 2.855-5.315 11.42 2.88 8.564-2.342-1.714-3.596-4.182-1.254-2.467-3.318-3.241-5.047 4.181-1.152 4.949-1.728 5.52-1.728 1.713.66-4.813-.597-6.778-3.772-5.894-4.762 1.326-6.023 3.545-7.175 9.002-1.153 5.457-3.457-8.247-7.49 3.744-2.689 7.993-4.033 7.993-4.033 0l-.885-6.852c-2.1-1.142-3.148 0-3.148 3.426 0 0-4.61-3.426-5.186 3.426 0 .57-4.033-.571-2.305 4.567 0 0-3.755.08-5.414 2.284-1.23 1.634-1.071 4.993 1.381 7.423 0 .57-5.761 2.284-4.033 6.851 0 .571-4.609-1.712-4.609 3.997M986.72 304.993l-6.913 17.129m231.039 97.064c-12.291.761-18.245 3.045-17.861 6.852.384 3.806 1.729 3.616 4.033-.571-.768 3.806-.384 4.948 1.152 3.425 2.305-2.283 1.711 3.426 3.737.571 2.025-2.854 5.482-7.993 8.363-8.564 0 0-4.61 9.706 0 8.564 3.073-.76 4.225-3.235 3.457-7.422 1.92.761 2.88 2.664 2.88 5.71 0 4.567 8.067 0 5.186-4.568-2.88-4.568 4.61 1.713 4.61 3.426s5.76-2.855-3.458-5.71c-6.145-1.903-9.602-2.665-10.37-2.284m11.523 34.258c4.993 2.284 7.682 3.807 8.066 4.568.384.761-2.305 3.426-8.066 7.993-.769-2.283-1.153-3.616-1.153-3.996 0-.381-1.92-.571-5.761-.571" stroke="#4A4A4A"/><path d="M1229.86 455.728c2.688 0 4.032-.952 4.032-2.855 0-2.855 2.881.571 2.881 1.142s2.305 5.139 4.033 2.855c1.152-1.523 1.92-.571 2.305 2.855 3.073 4.948 4.801 5.52 5.185 1.713.384-3.807.576-5.52.576-5.14 1.153 5.71 2.305 7.804 3.457 6.282 1.729-2.284 2.305-3.426.576-7.423-1.152-2.665.385-2.474 4.61.57 4.993.762 3.457-1.712-4.61-7.422-4.993-3.425-9.41-4.187-13.251-2.283-5.378-3.807-8.835-5.33-10.371-4.568-1.536.761-1.344 0 .576-2.284 2.305-1.142 3.457-2.665 3.457-4.568 0 .571 1.152 3.997 2.88 2.284 0 0 2.305 1.142 2.882-1.142.384-1.522 2.688 0 6.914 4.568 2.688 0 2.688-1.142 0-3.426l-.577-2.284 4.033-.57c1.537 2.664 3.073 3.235 4.61 1.712 1.536-1.522 3.457.38 5.761 5.71 2.689 3.426 3.457 1.903 2.305-4.568-.384-2.664-3.073-4.187-8.066-4.568-2.689-1.903-4.802-2.093-6.338-.57-1.536 1.522-2.497 1.522-2.88 0-.769-1.904-2.113-2.285-4.034-1.143-1.92 1.142-3.265.381-4.033-2.283-4.61-2.284-7.49-3.046-8.642-2.284m204.536-66.233c-11.369 8.41-18.013 10.902-19.933 7.477-1.921-3.426-.83-7.597 3.273-12.513 3.388-4.028 6.719-6.242 9.99-6.642 9.691-1.184 13.447-3.206 19.208 3.075 5.762 6.28 13.389 13.171 4.746 9.745-5.761-2.283-9.026-5.329-9.794-9.135 3.073 7.613 3.457 11.8 1.152 12.561-2.305.762-5.185-.761-8.642-4.568zm-46.093 2.855l9.219-14.274v-23.98" stroke="#4A4A4A"/><path stroke="#4A4A4A" d="M1387.15 362.66l-14.98-15.416v-18.27m-44.94 39.966c1.152 3.046 2.688 3.617 4.609 1.714 2.88-2.855 6.914-6.28 7.49-3.997.576 2.284 5.762 6.28 8.066 3.426 1.537-1.903 2.689-1.713 3.457.57.384 1.143 1.345 1.143 2.881 0 1.536-1.141 4.417-1.141 8.642 0 2.69 1.904 4.226.952 4.61-2.854.576-5.71 6.337 5.71 8.642 3.426 2.305-2.284 7.49-3.49 9.219-2.855m8.642-17.129c-9.987-1.142-15.748-1.142-17.285 0m-19.013-18.271c3.457 3.045 5.954 4.377 7.49 3.997 1.536-.38 3.457 2.093 5.762 7.422v-14.274"/><path d="M1396.945 312.986c2.304 4.187 4.61 5.71 6.914 4.568 3.457-1.713 7.49-.571 8.066 0 .576.57 6.338.367 6.914-2.1m-64.715 43.882c-4.39 3.12-7.377 2.68-8.961-1.321-3.053 4.023-4.58 7.557-4.58 10.602m19.487-10.524c5.762 2.664 8.643 5.519 8.643 8.564" stroke="#4A4A4A" stroke-linecap="round"/><path d="M264.795 605.892c1.152 11.8 1.92 18.652 2.305 20.555.384 1.903-.384-4.948-2.305-20.555zm641.509-117.615l71.774 1.709v50.245m86.424-349.431l-38.603 109.625m40.907-87.929l-32.84 91.926m32.84-65.662l-24.774 70.23m24.774-45.107l-17.284 49.103m17.284-21.696l-8.988 25.122m-33.015-13.107l-13.884 38.23m19.535-28.321l-10.316 29.462m10.371-3.426l-2.305 6.852m12.676-34.258l-6.914 19.413m14.98-15.987l-12.676 34.258m20.166-29.69l-12.1 33.116m20.412-28.876l-12.345 33.444m14.403-13.132l-5.185 14.274m-45.087-59.926l-13.681 37.087M132 176.715v10.86m4-9.575v14.052m-.923 14.935v4.74m39.113 52.917v3.543m44.422-.994c3.961-1.712 5.532-.805 4.712 2.722-1.23 5.289-4.712-.84-4.712-1.78v-.942zm19.144 12.644c5.533-.133 7.349-1.125 5.448-2.977-2.85-2.777-4.63 1.098-4.809 1.552-.12.303-.333.778-.639 1.425zM153.914 85.63s3.025-1.244 2.118 1.711-2.118-1.71-2.118-1.71zm44.724 32.918c3.789 1.368 5.881.34 6.276-3.087.395-3.427-1.066-2.99-4.383 1.307-1.794.046-2.625.354-2.493.924.133.57.332.856.6.856zm12.752-20.546c1.892-.97 2.923-.97 3.093 0 .256 1.454-1.775 1.578-2.434 1.454-.439-.083-.658-.567-.658-1.454zm29.655 14.647c1.484-1.498 5.165-.897 4.95-2.498-.217-1.601 4.828-3.061 4.87 2.498.027 3.705-2.991 4.28-9.056 1.726-.916-.741-1.17-1.317-.764-1.726zm18.224-13.071c-.988-4.451.493-6.45 4.444-5.993 5.926.684 3.78 5.25 2.193 4.802-1.588-.448-3.66-3.13-4.1-1.36-.443 1.768 2.72 2.89 2.314 3.47-.407.58-3.307 1.038-4.466-.92-.773-1.304-.9-1.304-.385 0zm-43.945 70.517c1.876-.877 2.617-1.899 2.22-3.064-.593-1.749 3.883 5.245 3.755 6.178-.086.622-2.077-.416-5.975-3.114zm103.594 1.074c-1.02 2.492-.236 4.198 2.35 5.118 2.588.92 2.278-.931-.928-5.554l-1.422.436zm7.195 6.499c-.268 5.197-.583 8.071-.946 8.621-.362.55 1.63-.206 5.98-2.27l-5.034-6.351zm525.89 139.498v4.466m84.96-119.054v51.978m-48.868 306.631l3.926.223m165.421-24.256v3.193m-1.595-2.821l.4.924M124.713 789.309l-131.946-81.33m340.06-328.529l-39.72 6.138m-59.649 8.534l-28.485-1.038-220.72-29.993m228.048 264.181c-8.94-13.284-14.043-20.119-15.309-20.504-1.9-.579 12.436 17.523 12.753 20.504m159.876 3.635c-.108-8.322 3.262-16.845 10.112-25.569 10.275-13.085-11.304 7.217-12.227 20.783m-1.536 4.966c-3.022-21.361-2.535-33.716 1.462-37.064" stroke="#4A4A4A"/><path d="M363.642 593.873c-3.247 3.894-4.904 7.26-4.971 10.102-.101 4.26 2.388-6.866 8.42-10.5m-37.773-27.341c-1.543 10.088-2.057 17.032-1.543 20.832m3.539.712c6.304-10.19 9.42-17.877 9.347-23.06m-6.403 38.803c4.675-12.64 10.36-19.848 17.058-21.622 10.047-2.66-10.563-.068-12.542 21.622M232 356l5.62.647-5.448.195 4.855.59m865.381 191.441h8.26l-3.724.62h2.836M173.92 394.401v186.69m363.433-188.919v184.53m439.721-159.63v72.307m247.63-379.729c-3.538.932-3.934 2.119-1.188 3.56 4.12 2.161 6.374 1.468 6.428-2.162.053-3.63.638-4.676-1.738-3.63-1.583.699-2.75 1.442-3.502 2.232zm-8.594 16.011c0 3.352-.074 4.748 4.681 3.073 4.756-1.676 6.232-2.091 7.053 1.675.822 3.767 5.301 3.496 5.303 1.037.002-2.458.478-4.993-3.165-7.138-3.643-2.145-4.376-2.414-7.195-2.145-2.818.27-6.677.147-6.677 3.498zm48.324 15.659c-2.463 1.733-1.457 3.959.788 3.867 2.245-.093 3.328-2.097 4.756-2.982 1.428-.885 2.052-4.267 4.904-2.576 2.852 1.691 7.428-.405 6.68 2.576-.75 2.982-1.504 4.845 2.414 3.913 3.918-.931 5.627-3.028 5.524-3.913-.102-.885-.5-3.039-1.526-4.373s-2.819-2.604-3.998-2.328c-1.18.277-2.216.553-4.274.277-2.057-.277-3.56.592-4.82-.277-1.26-.868-3.535-.51-4.904.277-1.369.786-2.62 1.777-2.543 2.813.077 1.035-.172 2.726-.85 2.726-.676 0 .312-1.733-2.151 0zm-91.364 119c2.464 1.733 1.458 3.959-.787 3.867-2.245-.093-3.328-2.097-4.756-2.982-1.429-.885-2.053-4.267-4.904-2.576-2.852 1.691-7.428-.405-6.68 2.576.749 2.982 1.503 4.845-2.415 3.913-3.918-.931-5.626-3.028-5.524-3.913.103-.885.5-3.039 1.526-4.373s2.82-2.604 3.998-2.328c1.18.277 2.217.553 4.274.277 2.058-.277 3.56.592 4.82-.277 1.26-.868 3.536-.51 4.905.277 1.368.786 2.62 1.777 2.543 2.813-.077 1.035.172 2.726.849 2.726s-.311-1.733 2.152 0zm170.132-125.133c2.929 0 3.126 1.184 2.929 2.592-.198 1.408 1.042 3.357-.198 3.637-1.24.28-2.731-2.592-2.731-3.115 0-.522-1.935-1.044-3.493-.522-1.558.522 1.243-3.207 1.558-3.475.316-.268-.994.883 1.935.883zm50.584-1.517c0 1.362 1.212 2.044 2.376 1.362 1.165-.681 2.166-1.362 3.023-1.362.856 0 3.053.519 2.62-1.102-.432-1.62-1.26-2.753-2.62-2.503-1.361.25-1.842.26-3.023 1.43-1.18 1.17-2.376.812-2.376 2.175zm-20.323 21.359c1.432-.915 3.448-.789 3.963 0 .515.789 2.809 1.79 3.739 2.057.93.267 2.94.768 3.903-.268.963-1.036 1.717-.572 1.695 1.036-.022 1.609 1.651 2.241-.022 3.164-1.673.922-2.542.56-4.06.922-1.516.364-2.207.892-2.207 1.76 0 .869-1.511 1.737-3.048.869-1.536-.869-1.408-1.706-2.226-2.629-.818-.922-1.348-2.281-2.874-2.281s-2.844 1.804-2.904 0c-.06-1.805-1.308-2.062.06-2.84 1.368-.78 1.707 3.346 2.844.778 1.137-2.568-.294-1.654 1.137-2.568zm-42.181 21.743c1.515-3.213.915-5.629-1.798-7.247-4.07-2.427 7.988-6.728 7.848-10.023-.14-3.295-4.756-5.932-7.848 0-3.093 5.931-2.883 1.381-3.093-1.1-.21-2.481-2.183-8.84-8.904 6.752-6.722 15.59 4.274-.224 5.777.73 1.503.953 1.985 5.588-1.503 7.881-3.489 2.294-7.22 3.417-7.605 8.46-.385 5.044-.418 7.942 4.345 3.971 4.763-3.97 8.615-5.439 7.89-7.944-.483-1.67 1.147-2.163 4.891-1.48z" stroke="#4A4A4A"/><path d="M145.214 303.516l35.082.18" stroke="#4A4A4A" stroke-width="3"/><path d="M134.26 206.24v5.722m8.317-7.484c-1.03-.912-.814-4.222 2.04-2.334 2.854 1.887 7.799 8.478 10.27 7.31 2.47-1.168 2.405 2.81 1.202 2.858-1.202.048-8.806-3.662-13.512-7.834zm32.465-2.565c1.273.483 2.207.483 2.803 0 .595-.482.128-1.597-1.401-3.345l-1.402 3.345zm16.074 6.625c2.927.485 4.085-1.425 3.475-5.73-.915-6.456 8.966 4.945 8.528 7.028-.293 1.388-4.294.956-12.003-1.298zm10.991 11.776c1.342-.494 1.9-1.077 1.673-1.748-.225-.672 1.64.67 5.599 4.026l-7.272-2.278zm-25.739 34.213v-21.795m38.748 29.534c1.603.07 1.603.727 0 1.973-2.405 1.869-3.725 4.287-5.965 2.925-2.24-1.362-.158-3.565 3.583-4.232 2.494-.444 3.288-.666 2.382-.666zm-7.395 13.368c2.66.123 3.275 1.072 1.846 2.845-2.143 2.66-2.57-1.15-2.546-1.743.017-.395.25-.762.7-1.102zm17.804-97.05c.837 1.87 2.869 3.65 6.097 5.341l-3.617-8.087c-2.023 1.005-2.85 1.92-2.48 2.746zm94.558-.008c.631 4.441 1.335 7.089 2.113 7.942.777.854 1.166-1.025 1.166-5.635l-3.279-2.307zm-9.289-22.944c1.892-.872 2.72-1.66 2.487-2.364-.35-1.057-3.1-.21-3.408.362-.205.38.102 1.048.921 2.002zm40.283 40.698l-24.147-2.352m268.361 161.65l258.268-34.6 221.673 68.243M927.01 199.153v48.565M1083 375.397l11.143-2.397m-205.43 186.315h-9.362 9.362z" stroke="#4A4A4A"/><path d="M813.508 535.25c-.441 1.084 2.51 1.583 8.855 1.498 6.345-.084 15.58-.126 27.706-.126h5.037m-145.124 2.676c-.138 2.61 1.55 3.881 5.066 3.816 5.273-.098 34.224-2.329 36.83-1.575m263.289-14.089c.381 2.302 2.58 3.405 6.6 3.31 6.029-.142 23.154-.75 24.756-.375" stroke="#4A4A4A" stroke-linecap="round"/><path d="M1058.7 536.905l.105 2.111M289.724 717.42L-2 614.583m478.149 80.93l-389.154-97.73M282.507 386.73l-13.466 2.204m-35.974 219.6c2.486 12.68 3.4 20.494 2.743 23.445m45.896-21.478c6.536-7.451 9.894-12.157 10.076-14.117m84.63 13.441c-.059-4.976 1.033-8.646 3.275-11.01 3.363-3.548-6.838 1.816-7.203 17.672m-17.887-4.841c2.684-9.653 6.126-15.487 10.327-17.504m-.99 10.688c-1.64 3.272-3.955 4.553-4.182 13.2-.151 5.766 1.243 2.982 4.182-8.35.301-3.835.301-5.452 0-4.85zm-44.521 5.3c1.549-3.618 3.788-6.352 6.716-8.204 4.393-2.777-1.566-30-5.015-31.64-3.45-1.64 8.536-2.867 11.66 35.53m-1.085-40.002c1.387 23.214 3.067 36.05 5.04 38.51m-1.783-6.861c6.572-17.934 9.267-28.907 8.086-32.919M232.185 357.661l4.688.458M233 357h4.113m58.897-13.36l-9.602-.428" stroke="#4A4A4A"/><path d="M938.883 530.43c1.23 1.872 1.399 3.743.507 5.615-1.338 2.807 18.051-1.64 33.505 0" stroke="#4A4A4A" stroke-linecap="round"/><path d="M1111.608 547.77h-15.475 15.475zM-1.332 378.888l159.241 19.21v178.884m77.056-177.849l1.787 175.472m22.603-173.24l1.448 176.66M843.4 418.222h50.935m-21.706.694v67.675m246.565-353.718c-1.514 3.213-.915 5.629 1.799 7.247 4.07 2.427-7.988 6.728-7.848 10.023.14 3.295 4.756 5.932 7.848 0 3.093-5.931 2.882-1.381 3.093 1.1.21 2.48 2.182 8.84 8.904-6.752 6.721-15.59-4.274.224-5.777-.73-1.503-.953-1.986-5.588 1.503-7.882 3.488-2.293 7.22-3.416 7.605-8.46.385-5.043.417-7.941-4.345-3.97-4.763 3.97-8.615 5.439-7.89 7.944.483 1.67-1.148 2.163-4.892 1.48zm129.658-20.529c-4.24 1.037-5.492 2.255-3.754 3.653 2.606 2.097 4.546 1.302 6.055 0 1.51-1.302 2.302-3.653 0-3.653h-2.3zm-54.255 61.516c1.044 1.061 3.086 1.828 3.99 0 .904-1.827.806 1.589 1.88 2.81 1.072 1.22 5.084 1.057 4.61-1.668-.475-2.726-.877-4.793-3.049-5.46-2.172-.668-4.22-.445-5.826.667-1.605 1.113-2.65 2.592-1.605 3.652zm123.622-24.078c1.77 0 4.634 1.99 4.461 3.547-.173 1.558.7 3.29-1.11 3.46-1.81.169-1.67-1.69-3.351-1.726-1.68-.035-1.736.202-2.622 1.725-.885 1.523-2.766 3.047-3.869 1.523-1.102-1.523-2.204-2.916-1.102-3.949s2.906-2.298 3.939-2.75c1.032-.453 1.885-1.83 3.654-1.83zm36.631-10.409c3.1 1.394 4.471 2.62 5.788 0 1.316-2.62 2.54-3.998 4.488-2.62 1.949 1.378 2.925 2.593 1.949 3.53-.977.938-3.559 1.001-3.376 1.983.184.981-.521 1.6 1.427 1.927 1.949.326 2.519.7 3.098 0 .58-.7 1.888-2.974 3.16-1.927 1.274 1.046 2.547 1.431 1.274 2.815-1.273 1.383-1.673.683-3.053 1.383s-2.53-1.157-2.53.7c0 1.858 1.112 3.034-.973 3.748-2.084.713-2.87 1.427-3.314.713-.445-.713-.89-.846-.445-2.12s1.705-1.658 0-3.041-1.721-2.271-3.709-2.271c-1.987 0-3.094-.888-3.783 0-.69.888-.925 1.775-2.412.888-1.486-.888-2.389-.672-2.272-1.744.116-1.071-.012-3.053 1.13-3.053s.455-2.304 3.554-.91zm43.438 2.777c2.972 0 3.705-.486 4.566 1.013.861 1.498-.68 3 1.782 3.047 2.463.046 2.524.092 3.985.046 1.461-.046 4.883 1.07 5.684 2.163.8 1.093 2.877 1.414 2.842 2.877-.036 1.462 2.445 3.76 1.223 4.43-1.223.672-1.231.463-2.648.672-1.417.208-.705-1.477-1.417-2.243-.712-.766-1.691-1.944-2.46-1.499-.77.445-.063 1.5-.77 1.5-.706 0-2.331 1.624-2.454.811-.082-.541-.123-1.311-.123-2.31-1.459-.908-2.467-1.361-3.025-1.361-.837 0 .175-.139-.837 1.36-1.012 1.5-1.332 0-3.168 0s-3.18-.673-3.18-1.36 6.109.343 2.123-2.877c-3.987-3.221-5.285-3.41-4.938-4.333.347-.923-.157-1.937 2.815-1.937zM1262.88 266.024c2.588 1.215 3.181 1.823 4.525 1.215 1.344-.607 1.819.476 1.344 1.754-.475 1.278.156 2.318-1.344 2.617-1.5.3-1.577 1.39-3.05 0-1.474-1.39-1.474-.863-1.474-2.617s-2.588-4.184 0-2.969zM165.117 91.403c1.371-.924 2.614-.672 3.727.756 1.67 2.144 2.427 4.65-.9 2.692-2.217-1.305-3.16-2.454-2.827-3.448zm50.785 1.34c3.147 1.795 2.628 2.69-1.56 2.687-6.28-.006-5.906-3.496-1.92-6.631 2.658-2.09 3.818-.775 3.48 3.944zm-7.056-21.238c-.203.566-.524 4.024 2.103 1.768 2.627-2.256 1.15-2.331.807-2.256-.343.076-2.71-.074-2.91.488zm47.766 21.477c-5.813-.716-6.902 1.325-3.265 6.122 5.454 7.196 3.387.69 6.408 5.339 3.022 4.649 4.68-.266 3.479-1.732-1.202-1.465-3.6-2.005-4.546-1.941-.946.064-6.222-4.197-3.736-5.055 1.657-.572 2.21-1.483 1.66-2.733zm-12.549 109.952l2.359-1.016" stroke="#4A4A4A"/></g></svg>