<svg width="1440" height="800" xmlns="http://www.w3.org/2000/svg"><path d="M0 611.79l204.053-35.882h29.268l25.35 3.017c-1.367-4.458-1.909-6.67-1.627-6.636.281.033 1.795 2.361 4.54 6.983l5.557.661 8.424 1.653c.377-3.818.648-5.71.812-5.678.164.032.57 2.057 1.215 6.075l11.277 2.213c-.827-18.115-1.244-30.672-1.25-37.67-.013-16.23 1.189-27.546 1.25-33.891.278-28.713.945-45.718 0-50.34-2.9-14.19-4.717-24.049-5.45-29.578l-1.323-58.284c-21.304 2.569-32.712 4.612-34.224 6.129-.748.75 1.198 1.254 4.254 2.234 1.277.41 3.731 2.202 4.918 4.303.697 1.235.021 3.157.914 3.413.884.253.972-.8 1.625-1.65.789-1.026 2.128-1.942 3.111-2.3 2.546-.926 5.607 1.119 5.745 1.43.588 1.325.98 1.732.851 2.52-.262 1.605-1.797 2.934-2.722 3.748-1.767 1.554-4.27.909-5.871.852-1.79-.064-2.587.365-2.74.54-.597.69-.315 2.585.845 5.686-.446-.447-3.481-1.024-9.105-1.732-2.009-.253-2.8-.49-2.372-1.479.396-.912-1.044 1.305-2.811 1.873-2.397.77-5.383.1-5.104-.657.327-.885-.677-.804-1.67-1.216-1.586-.658-3.664-1.566-4.165-2.063-1.73-1.72-.154-2.12 0-2.396.423-.754 3.055-3.183 7.133-1.887 1.16.37 3.108 2.01 5.841 4.923 1.153.15 1.774.15 1.864 0 .835-1.398 2.073-3.038 3.713-4.923l-7.77-9.545-7.887.56c-.803-.391-1.342-.793-1.615-1.206-.273-.413-.498-1.164-.674-2.255l-147.243-4.902L0 362.113V0h889.484v293.74l90.663 35.654 112.963 42.309-1.01-189.261C984.234 67.31 927.877 6.496 923.028 0H1440v800H99.174l187.239-81.21L1440 578.893V800H0V611.79zm386.495-232.43l-2.174 3.833h-5.189l-1.751-.464.492 3.84-3.74 3.305h-4.642l-4.078-4.845-2.62-1.836c-1.172-.966-1.952-1.73-2.34-2.292-.741-1.074-.77-2.666-1.79-3.082-1.818-.743-4.828-.743-9.029 0-4.474-.759-7.587-.975-9.34-.65-.971.182-1.054 1.707-1.66 2.577-.648.93-1.817 1.2-2.878 1.155-1.12-.049-1.657-1.056-2.91-1.155-1.213-.096.24-3.138-1.1-3.278-5.89-.614-17.905-1.64-36.045-3.076l-1.092 32.38c-.388 7.987-.556 13.594-.503 16.822.052 3.227.391 8.08 1.016 14.555 1.673 2.11 2.987 4.93 3.942 8.456.955 3.527 1.99 9.376 3.101 17.545-.814 17.187-.91 29.31-.285 36.366.203 2.297-.535 22.116-.598 36.623-.02 4.54.598 8.518.598 11.33 0 3.41.535 16.344 1.606 38.799 10.115 1.755 17.392 2.97 21.832 3.647 1.093.166-11.611-36.4.714-8.212 1.033 2.362 1.435 5.44 2.708 8.733.081.21-1.107-3.503-1.12-8.353-.016-5.865 1.156-13.075 1.454-12.886 1.342.848.378 5.957 1.556 10.288.351 1.291-.657 2.715.193 3.734.63.756-.342 3.1.414 3.78.28.252 3.065-4.464 5.38-9.287 2.047-4.267 3.651-8.71 3.94-8.515 2 1.34-.944 5.981-1.923 10.053-.297 1.238-.82 2.335-.452 3.382.664 1.89-4.158 6.928-2.681 8.396.49.487 1.448 4.078 4.464.289 3.017-3.79 8.342-9.155 9.67-8.913 2.365.43-7.098 6.648-7.44 9.487-.311 2.582 8.587 1.826 8.687 1.838 2.537.309 6.508.309 11.911 0 126.903-7.365 232.176-13.855 315.818-19.468 4.27-.286 10.923-.804 19.959-1.553v-5.84l3.067-.319c6.71 3.796 11.116 5.561 13.217 5.295 2.218-.282-13.828-17.155-10.282-17.685 1.7-.254-5.893-10.987-3.334-11.334.833-.113-.9-.264-1.193-1.414-.264-1.036.875-3.08 2.041-3.212 1.387-.157 2.897-.565 5.01-.768 1.276-.123-.312-3.34 1.635-3.507 6.008-.513 18.973 0 41.345 0 1.379 0 1.53.863 1.895 1.663 1.447 3.165 0 10.989 6.544 17.927.764.81 3.636 4.566 8.618 11.27l2.221.417.367-4.86 34.373-.733 14.45 3.9-9.31-15.11-4.728-6.197c.157-.661.367-1.154.629-1.478.262-.323.756-.702 1.484-1.137l-2.113-5.198 2.113-1.099 2.882.635c-.218-1.621-.307-2.598-.267-2.93.04-.333.305-.811.795-1.434h34.335c2.673-.048 4.423.058 5.249.318.528.166 2.33.789 3 2.576.252.672.252 2.058 0 4.156 7.704 12.283 13.408 19.31 17.111 21.078 5.555 2.653 7.164 1.92 14.127 1.92 3.391 0 10.484 2.132 19.922 0 2.734-.617 9.01-.928 18.827-.931l1.616-5.163h3.222l.718 1.708 17.341 2.032c-14.806-14.875-20.825-22.737-18.06-23.587.213-.066 1.012-.251 1.187-.983.206-.859-.135-2.294 1.33-2.558.962-.173 2.133.023 3.853-.248.835-.13-.362-1.833.949-2.03 4.623-.691 16.003 0 36.423-.265 4.332-.057-1.254 8.004 7.414 13.426 1.755 1.098 2.8 2.743 3.904 3.826 2.754 2.704 4.329 4.296 6.314 5.149 1.144.492 2.242 1.157 4.248.574 1.86-.54 10.1 1.015 24.722 4.664l7.636-.396v-1.978c-12.226-10.851-19.045-17.371-20.455-19.559-.937-1.453-.485-2.565.357-2.707.794-.134-1.657-3.41 1.52-4.47 1.023-.341 3.01.557 4.905 0 .805-.236.669-1.711 1.944-2.093 1.518-.454 8.107-.24 17.262 0 4.642.122 10.068-1.133 15.575.364 1.352.368 1.87 2.719 1.554 7.054l7.212 6.436 1.083-123.576-669.879-34.937z" fill="#343434" fill-rule="evenodd"/></svg>