<svg width="1440" height="800" xmlns="http://www.w3.org/2000/svg"><path d="M1080.76 547.396c6.548.799 13.906 1.385 21.17 1.721 11.248.52 22.58-.29 29.543 0 .523.022.281-1.76 0-3.233.775.049-2.359-1.375-1.7-1.303 1.865.204-.4-4.666.479-4.066 1.515 1.036 4.627-.84 6.006 0 .432.264-.247-1.658.858-1.35 5.742 1.608 12.516.18 11.4.234-1.279.062 1.032 6.973-2.156 7.212-1.91.18-1.494 2.395-1.389 2.506 2.726 2.885 67.524 3.23 68.224 3.795 6.353 5.124 66.048 3.224 67.367 3.505 16.419 3.5 91.549 1.861 91.71 2.874.415 2.618 2.663 1.658 3.318 1.467.421-.123 46.916 2.979 64.41 1.62V800H99.174l187.239-81.21L1440 578.893V800H0V611.79l204.053-35.882h29.268l25.35 3.017c-1.367-4.458-1.909-6.67-1.627-6.636.281.033 1.795 2.361 4.54 6.983l5.557.661 8.424 1.653c.377-3.818.648-5.71.812-5.678.164.032.57 2.057 1.215 6.075l11.277 2.213c-.827-18.115-1.244-30.672-1.25-37.67-.013-16.23 1.189-27.546 1.25-33.891.278-28.713.945-45.718 0-50.34-2.9-14.19-4.717-24.049-5.45-29.578l-1.323-59.353c-20.658-.819-32.813-.819-36.463 0-2.918.655 2.765 6.67 2.239 7.198-.748.75 1.198 1.254 4.254 2.234 1.277.41 3.731 2.202 4.918 4.303.697 1.235.021 3.157.914 3.413.884.253.972-.8 1.625-1.65.789-1.026 2.128-1.942 3.111-2.3 2.546-.926 5.607 1.119 5.745 1.43.588 1.325.98 1.732.851 2.52-.262 1.605-1.797 2.934-2.722 3.748-1.767 1.554-4.27.909-5.871.852-1.79-.064-2.587.365-2.74.54-.597.69-.315 2.585.845 5.686-.446-.447-3.481-1.024-9.105-1.732-2.009-.253-2.8-.49-2.372-1.479.396-.912-1.044 1.305-2.811 1.873-2.397.77-5.383.1-5.104-.657.327-.885-.677-.804-1.67-1.216-1.586-.658-3.664-1.566-4.165-2.063-1.73-1.72-.154-2.12 0-2.396.423-.754 3.055-3.183 7.133-1.887 1.16.37 3.108 2.01 5.841 4.923 1.153.15 1.774.15 1.864 0 .835-1.398 2.073-3.038 3.713-4.923l-7.77-9.545-7.887.56c-.803-.391-1.342-.793-1.615-1.206-.273-.413-.498-1.164-.674-2.255-3.044-1.813-5.244-3.145-6.6-3.997-1.4-.88 1.07-2.882-.171-3.71-3.523-2.346-1.952-.983-4.95-2.678-3.02-1.709-3.73-3.767-1.05-5.964.105-.085 1.66-.343 1.845-.438.723-.37 10.725 2.037 11.6 1.646 1.379-.616-1.324-2.91-3.83-4.132-2.506-1.223-4.86 1.042-7.77-1.223-2.91-2.266-7.752-3.852-7.998-6.423-.178-1.86-.127-3.644.66-5.482 2.057-4.803 7.268.768 8.51 0 .766-.474 2.558 1.545 7.483 5.482 1.552 1.24-.885 5.452.313 6.423 1.258 1.02 1.786 6.195 3.652 3.71 1.866-2.487 6.427-13.947 8.64-12.984 1.415.615-.964 4.734-2.511 7.45a589.255 589.255 0 0 1-4.526 7.755l4.967 6.858c4.835-3.246 8.911-4.869 12.227-4.869 2.753 0 0 1.362-1.568 2.19-1.57.83-3.874 1.723-6.912 2.68-1.705 1.137-2.264 1.715-1.677 1.735 22.125.742 37.565-.612 37.582-.774 1.298-12.156-4.814-21.92-18.334-29.295l-3.065-3.95h1.997v-5.039l-122.236-7.796L0 294.3V0h889.484v293.74l90.663 35.654 102.119 38.248-.022.19 11.88 5.157-11.88-.505v14.947l-3.299.576.278 4.01-228.62-68.178-265.68 32.254-176.961-12.13c-.13 3.353-.872 5.32-2.228 5.902-3.043 1.305-10.384-.543-10.957 0-1.562 1.48 4.057 1.714 4.72 2.436 1.908 2.078 1.586 4.126.724 4.987-2.887 2.889-4.554 3.321-6.2 3.321-3.922 0-.468 1.615-.732 2.213-.833 1.887 4.773 2.135 4.246 5.685-.527 3.55-4.064 4.183-4.246 4.482-.465.766-2.003 1.678-4.614 2.736-.257 2.439-.257 3.943 0 4.513.073.162.415.411 1.026.749l-1.74-.087-3.64 2.292-6.94-.464.492 3.84-3.74 3.305h-4.642l-4.078-4.845-2.62-1.836c-1.172-.966-1.952-1.73-2.34-2.292-.741-1.074-3.794 1.896-1.102-3.731s6.144-.485 10.14-1.518c1.95-.504-1.097-2.273-1.097-3.46 0-1.187 3.163-3.302 2.564-3.486-1.746-.534-7.465 1.72-7.717 1.655-.82-.212-3.642.398-8.467 1.83-3.437-4.846-3.63-7.78-.578-8.8.88-.294 2.002-.352 3.25-.252 1.041.082 1.096 3.388 2.24 3.642.31.068-1.114 2.216-4.563 2.216-3.45 0 .73 1.34.92 1.364 4.335.556 14.347-3.605 14.915-3.58.653.028 1.496-.816 2.529-2.53-3.237-5.381-3.957-7.908-2.16-7.58 1.897.344 2.617-1.205 2.16-4.648v-2.901l1.914-1.182c1.835.234 3.29.234 4.369 0 1.033-.224 1.801-2.726 2.643-2.957 2.058-.567-.036-1.94.814-2.365 1.384-.692-13.267.43-12.877 0 1.25-1.376-7.948.303-9.897 0-6.133-.95-1.896-7.196-7.053-.449-7.126 9.326-16.313 12.095-20.555 15.48-1.524 1.216 2.086 2.757 3.323 4.25.825.995 2.62 1.778 5.389 2.351l5.52-.86c1.383.655 1.988 1.424 1.815 2.31-.138.705-.915 2.25-3.864 2.769-2.949.518-2.933 1.233-3.992 2.062-1.763 1.38-2.015 3.687-1.972 4.258.115 1.533 14.28-4.818 14.336-3.784.072 1.327.242 1.102 0 1.187-3.128 1.103-12.08 4.787-13.106 4.978-.971.18-1.054 1.706-1.66 2.576-.648.93-1.817 1.2-2.878 1.155-1.12-.049-1.657-1.056-2.91-1.155-1.137-.09.068-2.769-.88-3.219.538-.17 1.468-.435 1.598-.422.176.019 2.23.625 2.23.313v-1.575c-2.04.22-3.44.087-4.2-.399-1.139-.73-2.051-1.834-2.134-2.333-.083-.5-.193-.972-.474-1.004-.28-.031-1.957-.792-1.617-2.554.34-1.763.678-3.331.99-3.464.209-.09.839-.496 1.89-1.222 1.553-.075 2.232-.269 2.036-.581-.294-.47-5.255-8.299-7.983-9.725-2.728-1.426-12.163-2.427-14.373-1.848-1.473.386-5.289 2.455-11.446 6.206-3.543 2.34-5.32 3.572-5.333 3.696-.012.124-.006 4.533.019 13.228l2.473.296-1.033 30.633c-.388 7.987-.556 13.594-.503 16.822.052 3.227.391 8.08 1.016 14.555 1.673 2.11 2.987 4.93 3.942 8.456.955 3.527 1.99 9.376 3.101 17.545-.814 17.187-.91 29.31-.285 36.366.203 2.297-.535 22.116-.598 36.623-.02 4.54.598 8.518.598 11.33 0 3.41.535 16.344 1.606 38.799 10.115 1.755 17.392 2.97 21.832 3.647 1.093.166-11.611-36.4.714-8.212 1.033 2.362 1.435 5.44 2.708 8.733.081.21-1.107-3.503-1.12-8.353-.016-5.865 1.156-13.075 1.454-12.886 1.342.848.378 5.957 1.556 10.288.351 1.291-.657 2.715.193 3.734.63.756-.342 3.1.414 3.78.28.252 3.065-4.464 5.38-9.287 2.047-4.267 3.651-8.71 3.94-8.515 2 1.34-.944 5.981-1.923 10.053-.297 1.238-.82 2.335-.452 3.382.664 1.89-4.158 6.928-2.681 8.396.49.487 1.448 4.078 4.464.289 3.017-3.79 8.342-9.155 9.67-8.913 2.365.43-7.098 6.648-7.44 9.487-.311 2.582 8.587 1.826 8.687 1.838 2.537.309 6.508.309 11.911 0 126.903-7.365 232.176-13.855 315.818-19.468.654-.044 7.728-.48 20.213-1.286l.553 2.387c-.846.474-1.402.727-1.667.76-.398.048-.566 2.94-.551 7.223.014 4.283 1.274 8.029 3.013 8.182 1.74.153 2.062-4.593 2.31-8.772.165-2.787-.16-5.165-.974-7.135l1.128-1.102 11.82 4.294 36.622 12.265v21.822h3.019v-22.813l15.476-.539.36.99 3.455-.22v-.77l9.463-.322v5.392c1.683.029 2.609.036 2.777.022.17-.015.17-1.82 0-5.414l21.561-1.063v21.68h2.613v-29.658l-.805-.95c.783-.22 1.185-.763 1.207-1.631.023-.868-1.367-2.325-4.167-4.372v-3.205l8.502-.636.243-.236.338 1c-.438 14.84-.438 22.26 0 22.26h2.847v-21.415l17.872 4.37 10.317 2.381c.65 1.632 1.114 2.61 1.39 2.936.415.49.52 1.511.982 1.378.464-.134 1.362.01 1.35-.684-.01-.463-.014-.93-.014-1.403l.658-.495 11.71 3.114v19.119l1.473 1.667h.916c.138 0 .464-.313.98-.938v-21.758l46.364-1.204v21.115h3.206c.361-.183.547-.39.557-.62.01-.23.015-8.973.015-26.23h-3.385c-.262 0-1.347-.257-3.255-.773 2.89-.243 4.379-.436 4.464-.577.085-.14.304-.607.656-1.398v-.845l-3.713-2.705c-1.708-.952-3.308-1.697-4.8-2.235-2.239-.807-5.732-2.075-6.546-2.128-.814-.053-9.56-.904-9.795-.904-.156 0-1.666-.642-4.528-1.925l-.619-.44c12.092-.928 24.552-1.897 37.33-2.906l-.673.897 2.264 1.076.714.26v2.428c-1.348 1.712-1.804 4.255-1.368 7.629.436 3.374 1.049 5.175 1.84 5.404 2.44-.828 3.707-2.312 3.8-4.454.139-3.211-.296-4.852-.402-6.297-.07-.963-.293-1.593-.668-1.89l.231-2.377 3.669.474c15.485 3.282 23.284 4.923 23.396 4.923.112 0 3.052.755 8.82 2.266 1.009 4.481 2.209 6.558 3.6 6.232 2.085-.49 3.668-4.028 3.56-4.641-.073-.409 3.157.19 9.688 1.795v2.181h2.29v-1.74l7.463 1.146.245 18.224c1.197.15 1.84.15 1.928 0 .088-.15.206-6.286.355-18.407h2.932v3.714c1.508.249 2.214.249 2.119 0-.096-.248-.096-1.486 0-3.714l24.566-.335v2.9h2.092l.221-2.9h5.935l.938.335h3.993v16.63h2.969V570.15l1.866-1.31 1.757-.492 1.515-3.062.427-2.254v-2.641l23.735 3.072 7.773 1.21.276 18.415c1.879.161 2.82.161 2.826 0 .006-.162.003-5.865-.008-17.11v-2.125l38.656.182v16.787h2.072c.043 0 .022-7.313-.065-21.939h-2.428l-2.18-.285c1.112-.377 1.98-.64 2.6-.79.933-.226 2.008-1.105 2.008-1.89 0-.786-3.957-3.924-10.31-4.113-4.236-.126-13.432-1.54-27.59-4.245l-.24-.164zM303.87 337.162c-.496 0-2.223 4.107-1.73 8.179.33 2.714-1.336 5.065-4.998 7.052-1.54 2.887-2.437 4.597-2.69 5.13-.382.798 5.24-2.707 5.723-3.181.323-.316 3.038-2.257 8.147-5.822a37.211 37.211 0 0 0 1.45-5.044c.343-1.639-.465-3.743-2.423-6.314h-3.479zm-5.63-.26c-6.453-.37-9.878-.564-10.275-.583-.595-.03-.475 2.815-.475 3.568 0 .502-.216 1.585-.65 3.249.283 2.25.5 3.874.65 4.872.151.999.31 3.207.475 6.625l1.264.6c2.57-2.071 4.519-3.886 5.846-5.444 1.992-2.338 2.757-4.052 3.165-6.653.271-1.734.271-3.812 0-6.233zm23.48 1.32l-9.926-.367c.704.789.952 1.363.743 1.723-.314.54.313 4.908.313 5.648 0 .74 3.764-2.736 4.374-3.43.61-.693 4.496-3.574 4.496-3.574zm30.56 1.954l-27.136-1.46a16.26 16.26 0 0 1-1.332.58c-.36.134-4.46 3.552-12.3 10.256l5.899.502c1.887 0 4.021.55 6.4 1.651 2.38 1.101 4.683 2.831 6.91 5.19l2.509-1.216c4.5-2.808 7.903-4.85 10.212-6.127 2.309-1.276 5.255-4.402 8.839-9.376z" fill="#343434" fill-rule="evenodd"/></svg>