<svg width="1440" height="800" xmlns="http://www.w3.org/2000/svg"><path d="M373.185 144.068L369 169.619l-8.955 3.54.634-1.518c.595-.309.859-.723.79-1.243-.067-.52-.331-1.211-.79-2.076l-1.626-.986h-1.505c-1.093.16-1.719.49-1.878.986-.16.496-.603 1.188-1.329 2.076v1.243h2.206v3.943l-6.403 3.556h-3.05c-.359 0-4.06-2.926-5.69-1.463-1.63 1.463-.877 2.999-1.63 3.473-.504.316-.755.87-.755 1.661l-1.65-1.661-2.407-.687-1.576-1.829v-1.418h1.044c.355-.33.532-.873.532-1.632 0-.758-.525-1.852-1.576-3.28l-1.114-.663c-.462-.828-.825-1.243-1.09-1.243-.265 0 .099-2.805 1.09-8.415l10.436-4.6 1.56-2.77-7.55-2.553c-1.236-5.165-2.525-7.997-3.865-8.497-2.01-.749-6.038-1.497-7.677-.749-1.093.5-2.07 1.247-2.93 2.243.07-1.994-.804-2.742-2.622-2.243-1.819.5-3.036 1.247-3.652 2.243l-5.106-1.494-40.404-12.751-1.252-.388a85.64 85.64 0 0 0 2.41-.992l.454-1.118c2.367-.505 3.56-1.118 3.58-1.838.02-.72-.762-1.382-2.345-1.984h-2.59c.205-.628.32-1.005.343-1.13.034-.189-.343-.614-.343-1.16 0-.364.047-.764.142-1.2 2.002-.934 3.207-1.76 3.614-2.477.61-1.075 1.913-3.025.956-4.197-.956-1.172-2.784-2.565-2.676-5.118.107-2.552.153-4.088.268-4.115.115-.027 1.575-.251 1.747-.244.173.006 4.389-.563 4.181-5.127-.208-4.563-3.885-5.92-4.18-6.558-.296-.637 0-1.664 0-1.74 0-.051.078-.21.236-.477l-2.11.477c-.66.101-.984.383-.971.846.013.462-.09 1.161-.307 2.098-.608-.104-1.166.204-1.674.923-.762 1.08-2.199 4.238-2.562 5.178-.363.939-1.392-.751-2.075.38-.683 1.132-.967 2.114-1.315 2.067-.349-.047-3.473-1.59-3.204-1.085.269.504 1.763 2.448 1.544 3.262-.219.815-.424 1.623-.631 1.882-.208.26-.974-.202-1.814.512-.84.713-1.028 1.776-3.784 2.095-2.756.32-3.254.63-3.302 1.302-.032.449-.048.907-.048 1.373-.524.719-.842 1.243-.953 1.574-.167.495.025-.223-.68.495-.704.719-1.5-.123-1.963.719-.309.561-.89 1.11-1.743 1.647l-1.286-.985-1.72-.662c-1.47-.48-2.316-.719-2.538-.719-.221 0-.794-.365-1.717-1.097.393-.648.653-.972.778-.972.187 0 3.406.27 3.81-.684.403-.954 1.712-2.365 3.49-2.365 1.78 0 1.833.372 2.89 0 1.057-.37 2.249.533 3.316-.594 1.068-1.127 2.701-2.676 2.655-4.187-.047-1.511-1.374-3.197-2.655-3.578-1.28-.38-1.79.015-1.955-.38-.164-.395-.095-1.29-.389-1.33-.293-.042-1.241-1.002-.972-1.299.269-.296.173-.114.269-.635.064-.347.095-1.091.095-2.231l1.522-1.111 1.99.505c.512.936.676 1.643.49 2.12-.278.717-1.05 1.49-1.05 1.89 0 .4.213.544.792 1.05.58.505.461.527.874.784s.61-.124.989.257c.252.254 1.184.708 2.795 1.362-.221-.4-.332-.728-.332-.982 0-.38-.331-.542 0-1.127.221-.39.44-.922.66-1.597.57-.293 1.065-.838 1.486-1.636.42-.798.832-1.506 1.235-2.121h.64c.744 0 1.21.536 1.47.268s.545-1.508.77-1.782c.149-.183.323-.58.523-1.194 1.793-.641 2.994-1.33 3.605-2.066.916-1.105 1.674-.139 1.674.37 0 .339.152.825.455 1.46.633-.515.95-.843.95-.983 0-.21-.066-2.243 1.17-2.702 1.237-.458 1.95 0 1.95 0s.236 1.086.26 1.47c.025.385.175 1.125.441.755.267-.37.897-.323 1.39-.755.493-.43.768-1.762 1.458-2.076.69-.314 9.423 1.089 10.552-1.236 1.13-2.325 1.03-6.902-3.28-9.168-4.31-2.267-7.347-4.17-9.329-2.728-1.982 1.443-1.78 4.4-2.205 5.165-.282.51-.503 1.35-.66 2.524-2.244-.332-3.48-.15-3.71.546-.228.696-1.04 1.458-2.433 2.288-.11.929-.193 1.463-.251 1.602-.087.21-.393 2.196-.393 2.832 0 .636-1.855.978-2.168 1.483-.312.506-2.628 1.854-4.114 1.536-1.487-.317-2.53.43-2.551-.553-.02-.983.957-5.298-1.353-5.298-1.54 0-2.66.336-3.36 1.007-.901-1.16-2.007-1.495-3.316-1.007-1.964.732-3.356 1.66-3.356 2.068 0 .271-.117.861-.351 1.77-.857-.47-1.286-.804-1.286-1.006 0-.302-.47-1.515-.235-1.825.157-.206.664-.704 1.52-1.492.215-1.999.015-3.316-.6-3.95-.92-.953-2.648-2.339-2.936-2.751-.289-.413.7.175-.85-2.211-1.55-2.386-1.697-3.845-3.501-5.052-1.804-1.206-1.943-.907-3.209-1.606-1.265-.699-1.059-1.628-1.952-1.935-.377-.129-1.138-.217-2.283-.265 1.659-2.05 3.636-6.844 3.837-7.332.152-.366 1.02-.986 2.607-1.859 2.87 2.079 4.79 3.009 5.756 2.789 1.451-.33 3.672-3.235 2.846-5.545-.55-1.54-.947-2.31-1.192-2.31v-1.643c2.66-1.114 4.379-1.966 5.154-2.559 1.164-.888 3.671-3.482 2.794-5.276-.585-1.196-2.228-2.541-4.93-4.037-.793-.41-1.402-.772-1.826-1.085-.424-.312-1.013-.948-1.768-1.908l-2.593-.886h-4.241l-1.005.886c-.669.836-1.01 1.364-1.024 1.582-.02.326.1 3.426.562 4.437.462 1.011-2.856-1.01-3.552 0-.464.674-.365 1.43.298 2.27l1.137.68c4.59.276 6.55.9 5.879 1.875-1.007 1.462-1.968 2.504-2.295 2.266-.327-.238-1.467-1.16-1.467-1.441 0-.283-.945-.825-1.531-.825s-2.427-.725-2.96.368c-.535 1.094-.685 2.344.533 2.83 1.218.487 3.958 1.357 3.958 1.752 0 .264-.187 2.032-.562 5.304a57.482 57.482 0 0 1-2.692 5.157c-.876 1.501-2.05 3.372-2.608 4.483a71.76 71.76 0 0 0-1.504-.014l-5.42-.927c-1.312-1.29-2.182-2.505-2.61-3.645-.64-1.71-1.238-3.234-2.086-3.939-.847-.705-2.77-3.422-3.54-3.637-.768-.215-1.156.482-1.351 1.752-.13.847.32 2.46 1.352 4.841l-.71 1.784c-1.046.198-1.724.198-2.032 0-.462-.297-2.384-1.181-3.346-2.96-.96-1.78-3.077-2.782-3.429-2.28-.352.5.617 3.9 1.375 5.24.505.894.942 2.018 1.311 3.372l.372 1.478c-2.255-1.588-3.473-2.165-3.656-1.73-.274.65.349 2.892 0 2.892s-4.79-3.32-6.32-2.241c-1.531 1.079-1.938 3.954-.713 5.8 1.226 1.847.712 1.729.712 1.847 0 .117-.491 4.537 0 5.88.328.895.844 1.466 1.548 1.714-.546 2.054-.835 3.245-.868 3.572-.05.49-3.13.642-3.66 1.096-.532.455.922-4.286-2.886-6.913-3.808-2.627-5.323-2.021-5.77-.578-.446 1.442-.893 2.181-.446 4.03.298 1.232 1.016 2.537 2.155 3.916-.515 2.839.082 5.099 1.79 6.78a285.713 285.713 0 0 1 5.777 5.875l2.005.982 3.41 1.085h.77l-.38 1.511-1.897 1.268c-1.892-1.297-3.402-1.135-4.528.486a9.616 9.616 0 0 0-.871 1.483l-13.33-4.13 10.269 2.608c-1.94-1.197-3.017-1.899-3.232-2.104-.215-.205-2.312-1.143-6.29-2.812l-.22-1.061c-.377-1.46-.625-2.28-.747-2.463-.121-.182-.937-.417-2.447-.706l3.414-4.721.595-1.882-2.305 2.599c-3.089 3.742-4.723 5.798-4.903 6.166-.18.368-.55-.117-1.11-1.456-.643-1.643-.994-2.59-1.052-2.84-.086-.378 1.041-1.348 1.375-2.935.334-1.587-.97-3.449-4.035-4.726-2.044-.851-3.995-.426-5.852 1.277-1.617.695-2.61 1.248-2.982 1.658-.371.41.623.725 2.982.945 2.147.564 3.724 1.515 4.731 2.854 1.512 2.007-.605 1.926-.496 2.232.541 1.53-2.15.782-2.369.829-1.872.404-6.571-4.867-6.847-4.721-.53.279-.631-.706-.573-1.194.057-.488 1.183-1.469 1.397-1.917.143-.299.647-.72 1.513-1.265l.55-1.32 2.842-2.126c3.384-1.903 5.085-3.464 5.104-4.683.027-1.83-2.484-1.444-2.92-1.444-.29 0-1.966.8-5.026 2.4l-.55 1.918 1.323.71c-.431.664-.689 1.03-.773 1.1-.083.068-.556.165-1.418.29.253-.865.43-1.46.53-1.787.277-.9.462-1.44.557-1.615.22-.406-1.087-.53-1.087-.616 0-.056.29-1.459.868-4.206l-2.337-1.337 1.469-1.158c.973-3.127 1.569-4.853 1.79-5.18.22-.326.549-1.445.987-3.357-1.297.931-2.223 1.732-2.777 2.401-.831 1.004-2.334 4.887-2.475 5.704-.094.545-.402.183-.923-1.087-.501-1.361-1.166-2.418-1.994-3.171-.83-.752-1.85-2.185-3.063-4.297-2.499-2.741-3.912-4.165-4.24-4.27-.49-.159.316 1.418.492 1.64.177.221 3.966 4.477 4.688 5.481.482.67 1.38 2.208 2.697 4.617-.702 2.01-1.129 3.169-1.278 3.476-.15.307-.767-.346-1.852-1.957h-1.375c1.984 2.61 3.06 4.044 3.227 4.301.167.257.083.5-.251.727-1.162-.415-1.791-.658-1.89-.727-.149-.104-2.798-.598-3.161-.676-.242-.052-.674-.874-1.296-2.467-.574-.913-.957-2.132-1.147-3.658-.19-1.526-1.316-2.738-3.378-3.636-1.457-.71-2.727-1.044-3.808-1.004-1.623.06-3.379 2.916-3.67 2.916-.291 0-1.153.518-1.267.663-.075.096-.565-.125-1.468-.663-1.516-1.542-2.535-2.7-3.06-3.472-.785-1.159-4.01-1.28-5.988 0-1.979 1.28 4.135 6.162 4.634 7.011.5.85 2.84 4.46 4.659 6.43 1.819 1.97 5.32 5.876 5.728 6.809.408.933 0 .422-.409 2.176-.126.542-.018 1.173.325 1.893L0 47.02V0h866.939v298.189l214.33 73.726.709 16.11-4.791-.318v4.617L851.12 322.73l-260.756 33.296L673.76 5.694l-78.012 35.914-14.96 70.44c-29.785-7.005-45.29-10.442-46.515-10.31-1.225.133-5.564 1.777-13.017 4.932l6.057-33.557-57.14 26.305-6.046 31.529-42.878 18.189v-3.571c1.354-.774 2.1-1.218 2.24-1.331.21-.17 1.24-1.094 1.227-1.39-.009-.197-.189-.634-.54-1.311l-1.11-.318-1.817.318a134.286 134.286 0 0 0-.62-2.24c-.082-.265-.654-1.045-.792-1.322-.093-.185-.435-.66-1.026-1.429l-1.076-.74-1.155-.314 2.23-12.424-45.625 21.004zM212.587 91.103c.756 1.873 1.28 2.81 1.572 2.81.292 0 .942.269 1.95.806v.994l-1.19 1.157c-.116 2.494-.369 3.757-.76 3.789-.323.026-2.194.234-3.005-1.39-.115-.23.137-.948.754-2.155-1.598.064-2.64.064-3.123 0a1.515 1.515 0 0 1-1.187-.83c-.067-.153.246-1.064.94-2.732.15-.653.474-1.389.973-2.208.499-.819 1.524-.9 3.076-.241zm10.51-4.267c0-.156.74-.249 2.217-.277.252.389.37.663.355.824-.022.24.045 1.84.023 2.321-.023.481-.61 1.032-.807 1.155-.131.082-.589-.463-1.374-1.636-.276-1.435-.414-2.23-.414-2.387zm-4.48 12.906c0-.262.559-.571 1.677-.928h1.025c.307 1.116.552 1.77.735 1.963.275.287-.237 2.034-.275 2.602-.038.567-2.795 0-3.162-.155-.368-.154 0-3.088 0-3.482zm-8.146-27.314c-.712 2.348-1.076 3.63-1.09 3.848-.02.327-2.246-.675-2.371-.928-.084-.169-.174-.918-.27-2.246l3.73-.674zm21.798 32.173l1.854-.94c1.053.627 1.63 1.045 1.73 1.257.152.317.259.595.429 1.164.17.57 0 1.015-.17 2.147-.17 1.133-.754.565-1.134.565-.253 0-.851-.188-1.794-.565-.837-.61-1.332-1.106-1.487-1.49-.233-.575-1.334 0-1.517.1-.183.1-.298.5-.732.946-.435.447-2.553.646-3.067 1.009-.515.363-.58-2.067-.67-2.712-.09-.645.587-1.481.67-1.481.082 0 .705-1.644.995-2.175.29-.531.93-.876 1.301-1.31.248-.289.425-.289.531 0 1.2 1.081 1.802 1.695 1.809 1.841.007.147.424.695 1.252 1.644zm620.45 211.313V.81l-92.766 327.778 92.765-12.674zM0 84.84V71.495l167.503 49.723c-.381 1.09-.572 1.716-.572 1.88 0 .162.19.496.572.999l.32.825 1.705.418.66.378 1.73 2.316c.392.229 1.017.917 1.874 2.066.857 1.148 2.288 1.439 4.293.87v43.935l-2.676-.484v1.138c1.203.73 1.923 1.128 2.16 1.194.236.067.549.282.938.646l-.939.34v.766l-.355 1.273 1.294 1.338v8.408l-.939.674-1.227.877-1.229 2.112-1.32.602-.95-.602h-2.189c-.22 0-1.734 1.456-2.126 1.786-.392.33-1.596.241-2.566-.33-.646-.38-.42-.665.677-.854v-1.672c.19-.62.288-1.633.293-3.037.005-1.404-1.028-2.464-3.1-3.18v-53.201l-26.853-8.602v36.742h-1.667l-1.72.933-1.726 1.576c-.66.624-.995 1.157-1.006 1.597-.015.66 0 1.08.016 1.08.01 0-.745.735-2.266 2.206v2.558c0 .377-.433.8-1.298 1.271h-3.23v-4.395h2.006c.66-.616 1.067-1.163 1.224-1.64.235-.717.712-1.822.712-2.677 0-.57.196-1.096.586-1.576a20.847 20.847 0 0 1-.586-4.159c-.06-1.442-1.949-2.999-5.664-4.669V120.6l-85.52-24.617v87.47l-13.327-4.947v-84.56L0 84.84z" fill="#343434" fill-rule="evenodd"/></svg>